<?xml version="1.0" standalone="no"?>
<!DOCTYPE svg PUBLIC "-//W3C//DTD SVG 20010904//EN"
 "http://www.w3.org/TR/2001/REC-SVG-20010904/DTD/svg10.dtd">
<svg version="1.0" xmlns="http://www.w3.org/2000/svg"
 width="61.000000pt" height="52.000000pt" viewBox="0 0 61.000000 52.000000"
 preserveAspectRatio="xMidYMid meet">
<metadata>
Created by potrace 1.13, written by Peter Selinger 2001-2015
</metadata>
<g transform="translate(0.000000,52.000000) scale(0.100000,-0.100000)"
fill="#000000" stroke="none">
<path d="M115 490 l-16 -30 -9 0 -10 0 0 -12 0 -11 -14 -16 -14 -16 -22 -55
-21 -55 -6 -86 -6 -86 12 -7 11 -7 0 -19 0 -18 39 -31 39 -31 41 0 41 0 18 18
19 19 14 31 14 32 8 0 7 0 11 28 10 27 12 28 12 27 9 -3 9 -3 14 -47 13 -46
22 -16 22 -15 49 0 48 0 27 14 27 14 28 31 27 31 0 10 0 10 -22 0 -22 0 -21
-26 -21 -26 -46 0 -46 -1 -19 18 -18 18 -15 71 -15 71 12 70 12 70 0 14 1 14
-47 -7 -48 -6 -30 20 -30 20 -47 0 -47 0 -16 -30z m119 -45 l5 -15 31 0 31 0
6 -16 6 -15 -13 -24 -13 -24 7 -17 7 -18 -15 -31 -15 -30 -14 -35 -15 -35 -16
-35 -15 -35 -20 -22 -19 -23 -29 0 -28 1 -16 12 -16 12 -13 24 -13 25 7 88 7
89 21 45 22 44 12 0 12 0 6 25 6 25 39 0 39 0 6 -15z"/>
</g>
</svg>
