<?xml version="1.0" standalone="no"?>
<!DOCTYPE svg PUBLIC "-//W3C//DTD SVG 20010904//EN"
 "http://www.w3.org/TR/2001/REC-SVG-20010904/DTD/svg10.dtd">
<svg version="1.0" xmlns="http://www.w3.org/2000/svg"
 width="37.000000pt" height="81.000000pt" viewBox="0 0 37.000000 81.000000"
 preserveAspectRatio="xMidYMid meet">
<metadata>
Created by potrace 1.13, written by Peter Selinger 2001-2015
</metadata>
<g transform="translate(0.000000,81.000000) scale(0.100000,-0.100000)"
fill="#000000" stroke="none">
<path d="M36 787 l-17 -13 1 -124 1 -125 9 -65 9 -65 6 -75 5 -75 1 -70 2 -70
-16 -30 -17 -30 0 -11 0 -12 15 -5 14 -6 63 10 63 9 30 12 30 12 24 18 24 18
35 52 34 52 10 56 9 55 -19 45 -20 45 -24 26 -25 27 -41 26 -42 26 -31 0 -32
0 -13 -17 -14 -18 -15 19 -15 20 0 148 0 148 -13 0 -13 0 -18 -13z m166 -357
l38 -11 24 -32 24 -32 12 -48 12 -47 -30 -63 -31 -63 -30 -22 -30 -22 -25 0
-24 0 -16 6 -16 6 0 75 0 76 -12 64 -12 63 12 12 12 12 0 18 0 18 28 0 27 0
37 -10z"/>
</g>
</svg>
