<?xml version="1.0" standalone="no"?>
<!DOCTYPE svg PUBLIC "-//W3C//DTD SVG 20010904//EN"
 "http://www.w3.org/TR/2001/REC-SVG-20010904/DTD/svg10.dtd">
<svg version="1.0" xmlns="http://www.w3.org/2000/svg"
 width="37.000000pt" height="76.000000pt" viewBox="0 0 37.000000 76.000000"
 preserveAspectRatio="xMidYMid meet">
<metadata>
Created by potrace 1.13, written by Peter Selinger 2001-2015
</metadata>
<g transform="translate(0.000000,76.000000) scale(0.100000,-0.100000)"
fill="#000000" stroke="none">
<path d="M45 744 l-20 -15 3 -292 3 -292 -9 -57 -9 -58 17 -15 16 -15 23 17
24 16 -6 58 -5 59 8 0 8 0 64 -28 63 -29 51 -13 51 -13 17 6 16 6 0 10 0 9
-92 45 -93 45 -26 6 -27 6 -6 17 -7 17 31 25 30 26 68 65 67 65 28 34 27 33 0
14 0 14 -20 0 -21 0 -15 -12 -16 -13 -21 -21 -22 -20 -32 -40 -31 -39 -35 -37
-35 -38 -9 0 -10 0 -8 178 -8 177 0 20 -1 20 7 38 8 37 -13 0 -13 -1 -20 -15z
m15 -191 l0 -13 -10 0 -10 0 0 28 0 27 10 -15 10 -15 0 -12z m50 -353 l0 -10
-10 0 -10 0 0 10 0 10 10 0 10 0 0 -10z m98 -50 l12 -20 -7 0 -8 1 -17 13 -18
13 0 7 0 6 13 0 12 0 13 -20z"/>
</g>
</svg>
