<?xml version="1.0" standalone="no"?>
<!DOCTYPE svg PUBLIC "-//W3C//DTD SVG 20010904//EN"
 "http://www.w3.org/TR/2001/REC-SVG-20010904/DTD/svg10.dtd">
<svg version="1.0" xmlns="http://www.w3.org/2000/svg"
 width="14.000000pt" height="80.000000pt" viewBox="0 0 14.000000 80.000000"
 preserveAspectRatio="xMidYMid meet">
<metadata>
Created by potrace 1.13, written by Peter Selinger 2001-2015
</metadata>
<g transform="translate(0.000000,80.000000) scale(0.100000,-0.100000)"
fill="#000000" stroke="none">
<path d="M56 787 l-9 -19 -18 5 -17 5 3 -87 3 -86 10 -45 10 -45 0 -220 0
-220 9 -30 9 -30 17 -3 18 -4 19 24 19 23 1 17 0 17 -16 9 -17 9 2 189 1 189
-15 120 -15 120 -3 40 -3 40 -8 -18z"/>
</g>
</svg>
