<?xml version="1.0" standalone="no"?>
<!DOCTYPE svg PUBLIC "-//W3C//DTD SVG 20010904//EN"
 "http://www.w3.org/TR/2001/REC-SVG-20010904/DTD/svg10.dtd">
<svg version="1.0" xmlns="http://www.w3.org/2000/svg"
 width="63.000000pt" height="48.000000pt" viewBox="0 0 63.000000 48.000000"
 preserveAspectRatio="xMidYMid meet">
<metadata>
Created by potrace 1.13, written by Peter Selinger 2001-2015
</metadata>
<g transform="translate(0.000000,48.000000) scale(0.100000,-0.100000)"
fill="#000000" stroke="none">
<path d="M151 443 l-31 -38 0 -16 0 -17 -15 -12 -14 -12 -17 41 -16 41 -7 0
-6 -1 -17 -13 -18 -13 0 -27 0 -26 10 0 10 0 0 -137 1 -138 17 -34 17 -34 8 2
7 1 16 0 15 0 -3 134 -3 134 23 31 22 30 0 18 1 18 14 18 13 19 19 -4 18 -3 8
-50 8 -50 5 -104 5 -104 10 -19 10 -19 17 3 17 3 9 30 9 30 24 65 25 65 21 43
21 42 15 0 16 -1 23 -36 24 -37 -7 -35 -6 -36 -5 -57 -6 -56 21 -21 21 -21 23
0 23 0 20 15 19 14 18 1 17 0 0 25 0 25 -45 0 -45 0 0 18 0 17 -3 80 -3 80
-11 20 -11 20 -13 28 -12 27 -42 0 -41 0 -25 -42 -24 -42 -15 -40 -16 -41 -17
-3 -17 -3 -1 73 0 73 -22 45 -22 45 -26 3 -27 3 -31 -38z"/>
</g>
</svg>
