<?xml version="1.0" standalone="no"?>
<!DOCTYPE svg PUBLIC "-//W3C//DTD SVG 20010904//EN"
 "http://www.w3.org/TR/2001/REC-SVG-20010904/DTD/svg10.dtd">
<svg version="1.0" xmlns="http://www.w3.org/2000/svg"
 width="39.000000pt" height="50.000000pt" viewBox="0 0 39.000000 50.000000"
 preserveAspectRatio="xMidYMid meet">
<metadata>
Created by potrace 1.13, written by Peter Selinger 2001-2015
</metadata>
<g transform="translate(0.000000,50.000000) scale(0.100000,-0.100000)"
fill="#000000" stroke="none">
<path d="M153 461 l-32 -29 -15 -36 -15 -36 -9 0 -10 0 -5 14 -5 14 5 41 6 41
-34 -3 -34 -3 1 -114 1 -115 8 -103 8 -103 20 -14 20 -14 8 4 7 5 7 53 8 52 2
70 3 70 7 30 7 30 11 25 12 25 12 8 13 8 0 13 0 13 23 12 23 12 48 2 48 2 15
-20 15 -20 -6 -75 -7 -75 -5 -75 -5 -75 8 -12 9 -13 24 -2 24 -3 3 184 4 184
-20 18 -20 19 -43 10 -43 10 -35 0 -36 0 -31 -29z m-108 -31 l6 -10 -10 0 -11
0 0 10 0 10 4 0 5 0 6 -10z m3 -120 l-3 -43 -10 -4 -10 -3 3 56 4 56 10 -10 9
-9 -3 -43z"/>
</g>
</svg>
