<?xml version="1.0" standalone="no"?>
<!DOCTYPE svg PUBLIC "-//W3C//DTD SVG 20010904//EN"
 "http://www.w3.org/TR/2001/REC-SVG-20010904/DTD/svg10.dtd">
<svg version="1.0" xmlns="http://www.w3.org/2000/svg"
 width="27.000000pt" height="46.000000pt" viewBox="0 0 27.000000 46.000000"
 preserveAspectRatio="xMidYMid meet">
<metadata>
Created by potrace 1.13, written by Peter Selinger 2001-2015
</metadata>
<g transform="translate(0.000000,46.000000) scale(0.100000,-0.100000)"
fill="#000000" stroke="none">
<path d="M53 442 l-13 -8 -16 -50 -15 -49 -6 -117 -6 -116 44 -47 44 -46 43
-2 44 -1 9 17 10 17 14 0 15 0 0 20 0 20 10 0 9 0 16 30 15 29 0 60 0 60 -10
6 -10 6 0 34 0 33 -15 6 -15 5 0 26 0 26 -15 5 -15 6 0 14 0 14 -27 0 -28 0
-35 5 -35 6 -12 -9z m115 -68 l22 -15 0 -24 0 -24 9 -5 9 -6 7 -74 7 -75 -32
-46 -31 -45 -24 0 -24 0 -27 35 -26 35 4 107 4 108 12 23 13 22 27 0 28 0 22
-16z"/>
</g>
</svg>
