<?xml version="1.0" standalone="no"?>
<!DOCTYPE svg PUBLIC "-//W3C//DTD SVG 20010904//EN"
 "http://www.w3.org/TR/2001/REC-SVG-20010904/DTD/svg10.dtd">
<svg version="1.0" xmlns="http://www.w3.org/2000/svg"
 width="42.000000pt" height="91.000000pt" viewBox="0 0 42.000000 91.000000"
 preserveAspectRatio="xMidYMid meet">
<metadata>
Created by potrace 1.13, written by Peter Selinger 2001-2015
</metadata>
<g transform="translate(0.000000,91.000000) scale(0.100000,-0.100000)"
fill="#000000" stroke="none">
<path d="M120 893 l-25 -5 -25 -23 -25 -23 -22 -11 -23 -12 0 -9 0 -10 20 0
21 0 6 -16 6 -15 13 5 13 5 0 -262 0 -262 1 -127 0 -126 21 5 21 6 9 24 9 24
-2 222 -2 222 2 168 2 169 53 -5 52 -4 40 -16 39 -15 18 -22 18 -22 0 -54 0
-55 -17 -27 -17 -27 -25 -22 -26 -22 -17 -1 -18 0 0 -10 0 -10 -40 -6 -40 -7
-5 -8 -5 -7 16 -16 15 -16 28 0 29 0 12 15 12 15 17 0 16 0 28 19 28 18 26 39
26 38 8 40 8 41 -10 38 -10 37 -9 0 -9 0 -6 20 -6 20 -35 37 -35 37 -32 3 -32
2 -45 5 -45 4 -25 -5z m-6 -128 l-7 -27 -7 12 -7 11 5 25 5 25 9 -9 9 -9 -7
-28z"/>
</g>
</svg>
