<?xml version="1.0" standalone="no"?>
<!DOCTYPE svg PUBLIC "-//W3C//DTD SVG 20010904//EN"
 "http://www.w3.org/TR/2001/REC-SVG-20010904/DTD/svg10.dtd">
<svg version="1.0" xmlns="http://www.w3.org/2000/svg"
 width="49.000000pt" height="81.000000pt" viewBox="0 0 49.000000 81.000000"
 preserveAspectRatio="xMidYMid meet">
<metadata>
Created by potrace 1.13, written by Peter Selinger 2001-2015
</metadata>
<g transform="translate(0.000000,81.000000) scale(0.100000,-0.100000)"
fill="#000000" stroke="none">
<path d="M77 760 l-35 -41 -15 -57 -16 -57 -3 -72 -3 -73 29 -32 29 -33 63 0
62 0 22 28 21 27 16 0 16 0 -8 -102 -8 -103 -3 -78 -3 -78 7 -37 8 -37 31 -3
31 -3 5 24 6 23 26 30 25 29 0 12 0 12 19 13 20 14 35 53 36 53 0 14 0 14 -14
0 -14 0 -29 -28 -28 -29 -43 -56 -43 -57 -8 0 -9 0 -6 15 -6 16 11 49 11 50 8
132 9 133 10 65 11 65 5 33 6 32 -51 0 -50 0 0 18 0 18 -45 22 -46 22 -28 0
-29 0 -35 -40z m141 -30 l32 -20 14 0 14 0 6 -16 6 -16 0 -26 0 -27 -23 -63
-23 -63 -7 7 -6 7 -12 -26 -12 -26 -30 -11 -30 -10 -22 0 -21 0 -19 14 -19 14
2 82 2 82 15 31 15 30 0 18 0 18 18 10 17 10 25 1 25 0 33 -20z"/>
</g>
</svg>
