<?xml version="1.0" standalone="no"?>
<!DOCTYPE svg PUBLIC "-//W3C//DTD SVG 20010904//EN"
 "http://www.w3.org/TR/2001/REC-SVG-20010904/DTD/svg10.dtd">
<svg version="1.0" xmlns="http://www.w3.org/2000/svg"
 width="37.000000pt" height="52.000000pt" viewBox="0 0 37.000000 52.000000"
 preserveAspectRatio="xMidYMid meet">
<metadata>
Created by potrace 1.13, written by Peter Selinger 2001-2015
</metadata>
<g transform="translate(0.000000,52.000000) scale(0.100000,-0.100000)"
fill="#000000" stroke="none">
<path d="M46 483 l-6 -28 -5 -65 -4 -65 -11 -54 -10 -54 0 -73 0 -73 25 -19
25 -20 0 -10 0 -11 10 -6 9 -6 21 13 20 13 0 20 0 21 -12 12 -12 12 -4 126 -4
126 38 40 39 40 73 -5 73 -4 12 -12 11 -11 13 0 13 0 0 13 -1 12 -22 26 -23
26 -57 6 -56 7 -50 -20 -50 -19 -6 10 -7 10 12 14 12 14 -7 11 -6 10 -24 0
-23 0 -6 -27z"/>
</g>
</svg>
