<?xml version="1.0" standalone="no"?>
<!DOCTYPE svg PUBLIC "-//W3C//DTD SVG 20010904//EN"
 "http://www.w3.org/TR/2001/REC-SVG-20010904/DTD/svg10.dtd">
<svg version="1.0" xmlns="http://www.w3.org/2000/svg"
 width="33.000000pt" height="46.000000pt" viewBox="0 0 33.000000 46.000000"
 preserveAspectRatio="xMidYMid meet">
<metadata>
Created by potrace 1.13, written by Peter Selinger 2001-2015
</metadata>
<g transform="translate(0.000000,46.000000) scale(0.100000,-0.100000)"
fill="#000000" stroke="none">
<path d="M109 432 l-45 -17 -22 -21 -22 -20 -6 -30 -6 -30 34 -26 34 -26 35
-15 34 -14 28 -27 28 -26 8 0 8 0 22 -24 22 -24 -3 -33 -3 -34 -33 2 -32 2
-45 32 -45 32 0 34 0 33 -23 0 -23 0 -12 -12 -12 -12 0 -23 0 -22 50 -50 51
-49 44 -12 44 -12 35 6 35 7 21 26 21 27 -6 26 -7 25 -14 16 -14 16 0 6 0 7
-41 38 -42 37 -11 5 -11 5 -57 37 -58 38 0 15 0 15 25 16 24 16 65 15 65 14
20 -20 21 -21 0 -10 0 -10 16 0 15 0 -3 22 -3 22 -40 23 -40 23 -40 -1 -40 -1
-46 -16z"/>
</g>
</svg>
