<?xml version="1.0" standalone="no"?>
<!DOCTYPE svg PUBLIC "-//W3C//DTD SVG 20010904//EN"
 "http://www.w3.org/TR/2001/REC-SVG-20010904/DTD/svg10.dtd">
<svg version="1.0" xmlns="http://www.w3.org/2000/svg"
 width="39.000000pt" height="65.000000pt" viewBox="0 0 39.000000 65.000000"
 preserveAspectRatio="xMidYMid meet">
<metadata>
Created by potrace 1.13, written by Peter Selinger 2001-2015
</metadata>
<g transform="translate(0.000000,65.000000) scale(0.100000,-0.100000)"
fill="#000000" stroke="none">
<path d="M163 643 l-13 -5 0 -24 0 -24 -15 0 -15 0 -15 -36 -15 -35 2 -7 2 -7
-8 -22 -7 -22 -31 -3 -31 -3 -5 -12 -4 -13 16 0 16 0 0 -10 0 -10 15 0 15 0 1
-12 1 -13 2 -110 1 -110 15 -45 15 -45 36 -36 37 -37 49 12 49 11 35 40 34 40
8 3 7 4 0 19 0 20 15 5 15 6 0 15 0 14 -27 -3 -28 -3 -10 -20 -10 -20 -29 -38
-28 -37 -38 0 -38 0 -11 14 -11 14 -16 58 -15 59 0 83 1 83 10 20 11 20 85 -7
84 -7 20 18 20 18 -6 9 -6 9 -41 0 -42 0 -60 3 -60 3 3 39 4 39 23 47 23 46
-5 6 -6 6 -6 -1 -6 -1 -12 -5z"/>
</g>
</svg>
