<?xml version="1.0" standalone="no"?>
<!DOCTYPE svg PUBLIC "-//W3C//DTD SVG 20010904//EN"
 "http://www.w3.org/TR/2001/REC-SVG-20010904/DTD/svg10.dtd">
<svg version="1.0" xmlns="http://www.w3.org/2000/svg"
 width="37.000000pt" height="48.000000pt" viewBox="0 0 37.000000 48.000000"
 preserveAspectRatio="xMidYMid meet">
<metadata>
Created by potrace 1.13, written by Peter Selinger 2001-2015
</metadata>
<g transform="translate(0.000000,48.000000) scale(0.100000,-0.100000)"
fill="#000000" stroke="none">
<path d="M98 422 l-58 -61 0 -20 0 -21 -8 0 -9 0 -6 -97 -7 -98 7 -38 6 -39
38 -24 39 -24 27 0 28 0 49 18 48 19 54 56 54 56 0 11 0 10 -19 0 -18 0 -47
-35 -46 -36 0 -8 0 -8 -39 -13 -38 -12 -47 20 -47 21 6 68 6 68 4 35 4 35 21
42 20 41 26 21 27 21 32 0 33 0 51 -17 51 -16 6 6 6 5 -6 20 -6 19 -27 12 -27
13 -66 5 -65 5 -57 -60z"/>
</g>
</svg>
