<?xml version="1.0" standalone="no"?>
<!DOCTYPE svg PUBLIC "-//W3C//DTD SVG 20010904//EN"
 "http://www.w3.org/TR/2001/REC-SVG-20010904/DTD/svg10.dtd">
<svg version="1.0" xmlns="http://www.w3.org/2000/svg"
 width="49.000000pt" height="48.000000pt" viewBox="0 0 49.000000 48.000000"
 preserveAspectRatio="xMidYMid meet">
<metadata>
Created by potrace 1.13, written by Peter Selinger 2001-2015
</metadata>
<g transform="translate(0.000000,48.000000) scale(0.100000,-0.100000)"
fill="#000000" stroke="none">
<path d="M305 466 l-18 -13 6 -22 5 -22 -34 -87 -34 -87 -18 -25 -18 -25 -17
-36 -16 -35 -20 -18 -19 -18 -24 4 -23 3 -8 60 -8 60 5 85 5 85 7 23 6 22 -31
0 -31 0 1 -42 1 -43 -7 -57 -7 -57 7 -86 7 -85 14 0 14 0 0 -15 0 -15 25 -6
25 -6 25 6 25 6 0 15 0 15 15 0 15 0 0 11 0 11 30 45 30 44 0 13 0 12 12 12
12 12 13 0 13 0 0 -55 0 -55 9 -18 9 -17 11 -27 11 -28 40 0 41 0 35 27 34 28
0 23 0 23 -22 -7 -23 -7 -20 -13 -19 -14 -17 0 -17 0 -11 27 -11 28 -1 100 -2
100 8 78 7 77 -14 0 -14 0 -19 -14z"/>
</g>
</svg>
