<?xml version="1.0" standalone="no"?>
<!DOCTYPE svg PUBLIC "-//W3C//DTD SVG 20010904//EN"
 "http://www.w3.org/TR/2001/REC-SVG-20010904/DTD/svg10.dtd">
<svg version="1.0" xmlns="http://www.w3.org/2000/svg"
 width="41.000000pt" height="46.000000pt" viewBox="0 0 41.000000 46.000000"
 preserveAspectRatio="xMidYMid meet">
<metadata>
Created by potrace 1.13, written by Peter Selinger 2001-2015
</metadata>
<g transform="translate(0.000000,46.000000) scale(0.100000,-0.100000)"
fill="#000000" stroke="none">
<path d="M17 443 l-7 -6 0 -22 0 -23 15 -12 15 -12 0 -29 0 -29 9 -18 9 -17
16 -37 16 -36 0 -14 0 -14 15 -20 14 -19 1 -17 0 -18 10 0 10 0 0 -19 0 -19
15 -12 15 -12 0 -15 0 -14 21 3 21 3 14 40 14 40 0 31 0 31 20 26 20 25 0 12
0 12 30 38 30 38 0 7 0 7 30 35 30 34 0 19 0 19 -8 5 -9 5 -21 -6 -22 -5 0
-13 0 -12 -25 -34 -26 -34 -34 -52 -35 -53 0 -5 0 -6 -15 -15 -15 -15 -10 -17
-10 -17 -12 20 -13 20 -13 40 -13 40 -9 20 -9 20 -10 39 -10 39 5 9 6 9 -18
20 -17 19 -17 0 -17 0 -6 -7z"/>
</g>
</svg>
