<?xml version="1.0" standalone="no"?>
<!DOCTYPE svg PUBLIC "-//W3C//DTD SVG 20010904//EN"
 "http://www.w3.org/TR/2001/REC-SVG-20010904/DTD/svg10.dtd">
<svg version="1.0" xmlns="http://www.w3.org/2000/svg"
 width="49.000000pt" height="49.000000pt" viewBox="0 0 49.000000 49.000000"
 preserveAspectRatio="xMidYMid meet">
<metadata>
Created by potrace 1.13, written by Peter Selinger 2001-2015
</metadata>
<g transform="translate(0.000000,49.000000) scale(0.100000,-0.100000)"
fill="#000000" stroke="none">
<path d="M444 472 l-11 -7 -7 -40 -7 -40 -8 -70 -8 -70 -18 -43 -17 -42 -10 0
-9 0 -26 30 -25 30 -26 0 -27 0 -40 -40 -40 -39 -22 -26 -22 -25 -11 0 -10 0
0 43 0 42 -22 115 -22 115 -2 3 -2 4 -20 -6 -20 -7 0 -41 -1 -42 9 -16 9 -16
2 -65 2 -64 10 -12 9 -13 2 -44 2 -44 13 -16 13 -16 20 0 19 0 35 28 34 27 0
16 0 15 33 32 34 33 19 -8 19 -7 16 -15 15 -16 18 -37 17 -38 29 0 30 0 1 20
2 20 2 28 2 27 13 75 13 75 4 68 5 67 14 0 14 0 0 18 0 18 -12 12 -12 12 -5 0
-6 0 -11 -8z"/>
</g>
</svg>
