<?xml version="1.0" standalone="no"?>
<!DOCTYPE svg PUBLIC "-//W3C//DTD SVG 20010904//EN"
 "http://www.w3.org/TR/2001/REC-SVG-20010904/DTD/svg10.dtd">
<svg version="1.0" xmlns="http://www.w3.org/2000/svg"
 width="39.000000pt" height="56.000000pt" viewBox="0 0 39.000000 56.000000"
 preserveAspectRatio="xMidYMid meet">
<metadata>
Created by potrace 1.13, written by Peter Selinger 2001-2015
</metadata>
<g transform="translate(0.000000,56.000000) scale(0.100000,-0.100000)"
fill="#000000" stroke="none">
<path d="M329 523 l-35 -38 -13 -25 -12 -25 -23 -40 -22 -40 -15 -3 -14 -2
-18 44 -18 45 -25 26 -24 26 0 8 0 8 -23 21 -23 22 -21 0 -21 0 -12 -15 -12
-15 6 -15 5 -15 18 0 18 -1 17 -13 18 -13 0 -12 0 -12 14 -5 14 -5 6 -25 6
-24 10 0 10 0 0 -25 0 -25 10 0 10 0 0 -34 0 -34 -8 -4 -8 -3 -23 -37 -23 -38
-9 0 -9 0 0 -19 0 -18 -37 -48 -36 -48 10 -16 10 -16 14 0 13 0 53 75 52 75 0
11 1 11 20 18 19 17 30 -48 30 -49 16 -23 17 -23 26 3 27 3 3 23 4 23 -39 37
-39 37 -19 37 -19 37 12 23 12 23 56 90 56 90 8 28 9 27 -13 0 -12 0 -35 -37z"/>
</g>
</svg>
