<?xml version="1.0" standalone="no"?>
<!DOCTYPE svg PUBLIC "-//W3C//DTD SVG 20010904//EN"
 "http://www.w3.org/TR/2001/REC-SVG-20010904/DTD/svg10.dtd">
<svg version="1.0" xmlns="http://www.w3.org/2000/svg"
 width="44.000000pt" height="102.000000pt" viewBox="0 0 44.000000 102.000000"
 preserveAspectRatio="xMidYMid meet">
<metadata>
Created by potrace 1.13, written by Peter Selinger 2001-2015
</metadata>
<g transform="translate(0.000000,102.000000) scale(0.100000,-0.100000)"
fill="#000000" stroke="none">
<path d="M406 1005 l-5 -15 -13 0 -13 0 -15 -22 -14 -23 -8 -50 -9 -50 -2 -20
-3 -20 -9 -50 -8 -50 -14 -21 -14 -22 -20 -5 -21 -6 -14 6 -14 5 0 12 0 12
-19 40 -18 39 -7 50 -6 50 -12 66 -12 67 -23 -11 -23 -10 6 -56 6 -56 10 -50
9 -50 6 -32 5 -33 8 0 8 0 7 -37 7 -37 20 -18 21 -18 16 0 17 0 22 16 22 15 0
-20 0 -21 10 0 10 0 -1 -22 0 -23 -8 18 -7 19 -11 -24 -12 -23 -5 -45 -5 -45
-9 -55 -10 -55 -16 -60 -17 -60 -9 -17 -10 -18 0 -25 0 -25 -9 0 -10 0 -6 -21
-7 -20 -19 3 -20 3 -18 35 -18 35 -12 36 -11 35 0 83 0 83 20 25 20 26 0 14 0
15 -12 -4 -12 -4 -24 -48 -23 -47 -2 -132 -2 -132 20 -27 20 -26 43 -21 43
-21 13 0 13 0 26 38 25 37 12 40 13 40 7 20 8 20 15 60 16 60 15 70 15 70 11
90 11 90 9 35 9 35 22 110 22 110 13 20 14 19 0 23 0 23 -9 0 -9 0 -6 -15z"/>
</g>
</svg>
