<?xml version="1.0" standalone="no"?>
<!DOCTYPE svg PUBLIC "-//W3C//DTD SVG 20010904//EN"
 "http://www.w3.org/TR/2001/REC-SVG-20010904/DTD/svg10.dtd">
<svg version="1.0" xmlns="http://www.w3.org/2000/svg"
 width="43.000000pt" height="39.000000pt" viewBox="0 0 43.000000 39.000000"
 preserveAspectRatio="xMidYMid meet">
<metadata>
Created by potrace 1.13, written by Peter Selinger 2001-2015
</metadata>
<g transform="translate(0.000000,39.000000) scale(0.100000,-0.100000)"
fill="#000000" stroke="none">
<path d="M24 355 l-6 -26 4 -5 5 -5 122 0 121 -1 0 -14 0 -14 -40 -28 -39 -27
-1 -12 0 -12 -22 -12 -23 -12 -53 -51 -53 -51 -14 -8 -15 -8 0 -24 0 -25 23
-4 22 -5 150 -4 150 -4 33 4 32 5 0 12 0 11 -42 14 -43 15 -100 1 -101 1 -12
8 -13 8 65 61 65 62 18 16 18 16 38 41 38 41 2 28 2 28 -55 -3 -55 -2 -40 0
-40 0 -67 6 -67 6 -7 -27z"/>
</g>
</svg>
