<?xml version="1.0" standalone="no"?>
<!DOCTYPE svg PUBLIC "-//W3C//DTD SVG 20010904//EN"
 "http://www.w3.org/TR/2001/REC-SVG-20010904/DTD/svg10.dtd">
<svg version="1.0" xmlns="http://www.w3.org/2000/svg"
 width="36.000000pt" height="69.000000pt" viewBox="0 0 36.000000 69.000000"
 preserveAspectRatio="xMidYMid meet">
<metadata>
Created by potrace 1.13, written by Peter Selinger 2001-2015
</metadata>
<g transform="translate(0.000000,69.000000) scale(0.100000,-0.100000)"
fill="#000000" stroke="none">
<path d="M259 663 l-1 -18 1 -17 2 -18 -12 0 -12 0 6 -49 6 -49 -6 -56 -6 -57
-10 10 -11 11 -36 0 -36 0 -52 -52 -52 -52 -2 -20 -1 -21 -1 -17 -2 -18 -12
-12 -12 -12 0 -54 0 -54 15 -32 15 -32 29 -17 29 -17 46 9 46 8 16 14 16 13 9
24 9 24 12 -4 12 -4 7 -32 6 -32 13 -15 12 -15 19 0 19 0 6 25 6 25 -15 33
-15 32 -8 45 -8 45 0 235 -1 235 -22 3 -23 3 -1 -18z m23 -135 l-12 -12 0 24
0 24 12 -12 12 -12 -12 -12z m-69 -177 l24 -9 5 -79 5 -78 -7 -5 -7 -5 -19
-42 -19 -42 -26 -11 -25 -11 -25 10 -24 10 -28 19 -29 20 10 6 10 6 7 46 7 47
16 36 16 36 25 28 25 27 17 0 18 0 24 -9z"/>
</g>
</svg>
