<?xml version="1.0" standalone="no"?>
<!DOCTYPE svg PUBLIC "-//W3C//DTD SVG 20010904//EN"
 "http://www.w3.org/TR/2001/REC-SVG-20010904/DTD/svg10.dtd">
<svg version="1.0" xmlns="http://www.w3.org/2000/svg"
 width="44.000000pt" height="52.000000pt" viewBox="0 0 44.000000 52.000000"
 preserveAspectRatio="xMidYMid meet">
<metadata>
Created by potrace 1.13, written by Peter Selinger 2001-2015
</metadata>
<g transform="translate(0.000000,52.000000) scale(0.100000,-0.100000)"
fill="#000000" stroke="none">
<path d="M111 469 l-51 -52 0 -13 0 -13 -14 -13 -13 -14 -6 -29 -5 -30 -11
-40 -11 -40 6 -72 7 -72 31 -30 32 -31 58 -12 59 -11 45 12 45 12 27 19 28 20
12 0 13 0 33 36 34 36 -5 9 -6 9 -18 0 -17 0 -22 -20 -21 -20 -7 0 -8 0 -23
-21 -22 -22 -48 -4 -48 -5 -42 11 -42 12 -21 29 -21 29 3 78 3 78 30 -5 30 -4
45 0 45 0 58 4 57 3 0 79 0 79 -9 -5 -9 -6 -4 18 -5 17 -42 23 -43 22 -28 0
-27 0 -52 -51z m148 -45 l22 -26 -3 -26 -3 -27 -55 -3 -54 -3 -12 -10 -12 -10
-26 7 -26 6 0 5 0 4 12 22 11 22 25 33 24 32 37 0 37 0 23 -26z"/>
</g>
</svg>
