<?xml version="1.0" standalone="no"?>
<!DOCTYPE svg PUBLIC "-//W3C//DTD SVG 20010904//EN"
 "http://www.w3.org/TR/2001/REC-SVG-20010904/DTD/svg10.dtd">
<svg version="1.0" xmlns="http://www.w3.org/2000/svg"
 width="50.000000pt" height="75.000000pt" viewBox="0 0 50.000000 75.000000"
 preserveAspectRatio="xMidYMid meet">
<metadata>
Created by potrace 1.13, written by Peter Selinger 2001-2015
</metadata>
<g transform="translate(0.000000,75.000000) scale(0.100000,-0.100000)"
fill="#000000" stroke="none">
<path d="M260 743 l-15 -6 -38 -39 -39 -39 -3 -132 -4 -132 -38 -1 -38 -1 -32
-16 -32 -17 -7 -11 -6 -11 15 -15 15 -16 45 11 44 11 31 -11 32 -12 0 -7 0 -7
-21 5 -22 6 7 -49 7 -49 6 -32 5 -33 9 0 9 0 0 -29 0 -30 -10 -6 -10 -6 0 -19
0 -19 31 -15 32 -16 15 12 14 13 -5 60 -6 60 -16 45 -16 44 -2 46 -2 45 30 -1
30 0 108 -8 108 -7 -3 27 -3 27 -65 3 -64 3 -51 11 -50 11 -23 5 -24 5 6 22 5
22 2 79 2 78 18 39 19 38 10 6 10 6 0 -12 0 -11 14 11 13 11 43 -15 43 -15 2
2 2 3 -9 32 -8 32 -18 5 -17 5 -35 5 -35 5 -15 -6z m-50 -142 l0 -20 -10 -6
-10 -6 0 25 0 26 10 0 10 0 0 -19z m-165 -250 l5 -10 -10 -6 -10 -6 0 15 0 16
4 0 5 0 6 -9z"/>
</g>
</svg>
