<?xml version="1.0" standalone="no"?>
<!DOCTYPE svg PUBLIC "-//W3C//DTD SVG 20010904//EN"
 "http://www.w3.org/TR/2001/REC-SVG-20010904/DTD/svg10.dtd">
<svg version="1.0" xmlns="http://www.w3.org/2000/svg"
 width="45.000000pt" height="91.000000pt" viewBox="0 0 45.000000 91.000000"
 preserveAspectRatio="xMidYMid meet">
<metadata>
Created by potrace 1.13, written by Peter Selinger 2001-2015
</metadata>
<g transform="translate(0.000000,91.000000) scale(0.100000,-0.100000)"
fill="#000000" stroke="none">
<path d="M179 902 l-15 -7 -25 -20 -25 -20 -23 -40 -23 -40 6 -76 6 -76 15
-30 15 -30 20 -18 20 -18 46 6 46 5 24 23 23 24 13 40 13 40 14 0 14 0 13 -55
13 -55 1 -160 1 -160 0 -42 -1 -42 -22 -26 -23 -26 -40 -9 -40 -9 -68 6 -68 6
-20 28 -20 28 -6 50 -6 50 35 33 35 33 23 18 24 17 8 0 8 0 0 10 0 11 -37 -7
-38 -7 -5 -6 -5 -6 -28 -18 -27 -17 0 -12 0 -11 -17 -12 -17 -13 -1 -78 0 -79
20 -27 20 -27 25 -9 25 -10 66 -12 67 -12 54 17 54 17 26 23 26 22 18 39 19
39 -2 196 -3 195 -15 37 -15 36 0 54 0 53 -15 20 -14 19 -1 52 0 52 -11 7 -11
6 -11 -11 -11 -11 -18 0 -18 0 0 -9 0 -10 10 -6 10 -6 0 -38 0 -38 -23 -70
-22 -69 -18 -27 -18 -27 -27 6 -27 6 -21 25 -22 26 0 31 -1 31 -2 15 -2 15 1
32 2 31 26 31 26 31 38 0 39 0 6 21 7 21 -13 9 -14 9 -25 -1 -25 0 -16 -7z
m-109 -788 l0 -14 -9 0 -9 0 -6 16 -6 16 0 10 0 10 15 -12 15 -12 0 -14z"/>
</g>
</svg>
