<?xml version="1.0" standalone="no"?>
<!DOCTYPE svg PUBLIC "-//W3C//DTD SVG 20010904//EN"
 "http://www.w3.org/TR/2001/REC-SVG-20010904/DTD/svg10.dtd">
<svg version="1.0" xmlns="http://www.w3.org/2000/svg"
 width="47.000000pt" height="80.000000pt" viewBox="0 0 47.000000 80.000000"
 preserveAspectRatio="xMidYMid meet">
<metadata>
Created by potrace 1.13, written by Peter Selinger 2001-2015
</metadata>
<g transform="translate(0.000000,80.000000) scale(0.100000,-0.100000)"
fill="#000000" stroke="none">
<path d="M27 794 l-7 -7 0 -14 0 -13 20 0 20 0 0 -14 0 -14 -22 -14 -22 -14 3
-175 2 -174 4 -130 4 -129 18 -13 17 -13 10 3 10 3 8 30 8 29 5 83 6 84 17 26
17 27 23 18 22 19 14 14 15 14 12 0 13 0 22 -21 23 -21 -5 -112 -5 -111 -11
-57 -11 -58 13 -15 12 -15 17 0 16 0 37 38 37 38 40 20 41 19 0 8 0 7 -24 0
-23 0 -32 -11 -31 -11 0 -9 0 -9 -16 0 -16 0 7 102 7 103 -11 63 -10 64 -22
19 -22 19 -38 0 -39 0 -52 -49 -53 -50 -7 7 -7 7 -2 185 -2 184 -22 23 -21 24
-7 -7z m22 -171 l0 -38 -9 20 -9 20 0 18 -1 17 10 0 10 0 -1 -37z"/>
</g>
</svg>
