<?xml version="1.0" standalone="no"?>
<!DOCTYPE svg PUBLIC "-//W3C//DTD SVG 20010904//EN"
 "http://www.w3.org/TR/2001/REC-SVG-20010904/DTD/svg10.dtd">
<svg version="1.0" xmlns="http://www.w3.org/2000/svg"
 width="17.000000pt" height="73.000000pt" viewBox="0 0 17.000000 73.000000"
 preserveAspectRatio="xMidYMid meet">
<metadata>
Created by potrace 1.13, written by Peter Selinger 2001-2015
</metadata>
<g transform="translate(0.000000,73.000000) scale(0.100000,-0.100000)"
fill="#000000" stroke="none">
<path d="M15 703 l-18 -27 19 -35 19 -36 45 3 45 3 17 5 16 5 6 15 6 16 -16
33 -15 33 -31 6 -30 6 -23 0 -23 0 -17 -27z"/>
<path d="M92 424 l-13 -15 -9 -177 -9 -177 15 -22 14 -23 25 0 25 0 0 199 0
199 6 16 6 16 -23 0 -24 -1 -13 -15z"/>
</g>
</svg>
