<?xml version="1.0" standalone="no"?>
<!DOCTYPE svg PUBLIC "-//W3C//DTD SVG 20010904//EN"
 "http://www.w3.org/TR/2001/REC-SVG-20010904/DTD/svg10.dtd">
<svg version="1.0" xmlns="http://www.w3.org/2000/svg"
 width="33.000000pt" height="100.000000pt" viewBox="0 0 33.000000 100.000000"
 preserveAspectRatio="xMidYMid meet">
<metadata>
Created by potrace 1.13, written by Peter Selinger 2001-2015
</metadata>
<g transform="translate(0.000000,100.000000) scale(0.100000,-0.100000)"
fill="#000000" stroke="none">
<path d="M205 973 l-6 -18 10 -3 11 -4 0 -13 0 -14 29 -20 29 -21 11 0 11 0 0
35 0 35 -9 0 -9 0 -5 20 -5 20 -30 0 -30 0 -7 -17z"/>
<path d="M265 721 l-5 -10 10 -6 10 -6 0 -25 0 -24 -14 0 -14 0 -5 -22 -6 -22
6 -227 6 -226 -22 -47 -23 -46 -9 0 -8 0 -38 17 -38 18 -43 42 -42 43 0 18 0
19 11 32 11 32 -5 6 -6 5 -16 -15 -15 -16 -2 -33 -2 -33 2 -42 2 -41 39 -41
39 -41 27 -10 26 -10 47 0 47 1 15 12 15 12 16 25 16 25 7 50 7 50 5 30 4 30
-12 230 -11 230 -13 12 -13 13 -6 -9z"/>
</g>
</svg>
