<?xml version="1.0" standalone="no"?>
<!DOCTYPE svg PUBLIC "-//W3C//DTD SVG 20010904//EN"
 "http://www.w3.org/TR/2001/REC-SVG-20010904/DTD/svg10.dtd">
<svg version="1.0" xmlns="http://www.w3.org/2000/svg"
 width="48.000000pt" height="95.000000pt" viewBox="0 0 48.000000 95.000000"
 preserveAspectRatio="xMidYMid meet">
<metadata>
Created by potrace 1.13, written by Peter Selinger 2001-2015
</metadata>
<g transform="translate(0.000000,95.000000) scale(0.100000,-0.100000)"
fill="#000000" stroke="none">
<path d="M296 938 l-3 -13 -12 -37 -12 -36 3 -9 2 -8 -22 -42 -22 -42 0 -20 0
-20 -11 -28 -11 -28 -8 -20 -8 -20 -7 -45 -6 -44 -8 -11 -9 -10 -10 -35 -10
-35 -36 -80 -36 -80 0 -15 0 -16 -20 -39 -20 -39 0 -18 0 -17 -10 -6 -10 -6 0
-55 0 -54 9 0 9 0 21 36 21 35 0 20 0 19 9 0 9 0 17 68 17 67 8 20 8 20 6 18
6 19 115 -4 114 -3 11 -11 10 -10 4 -75 4 -74 7 -27 7 -28 18 0 18 0 11 13 11
14 -11 79 -11 79 -9 70 -9 70 -11 90 -11 90 -30 160 -30 160 -10 13 -10 12
-20 0 -19 0 -3 -12z m32 -170 l12 -12 0 -30 0 -31 14 -70 14 -70 7 -87 7 -88
-75 0 -75 0 -22 18 -23 18 22 60 21 60 0 25 1 24 14 19 15 20 0 25 0 26 15 29
15 28 0 17 0 18 7 6 6 7 7 0 6 0 12 -12z"/>
</g>
</svg>
