<?xml version="1.0" standalone="no"?>
<!DOCTYPE svg PUBLIC "-//W3C//DTD SVG 20010904//EN"
 "http://www.w3.org/TR/2001/REC-SVG-20010904/DTD/svg10.dtd">
<svg version="1.0" xmlns="http://www.w3.org/2000/svg"
 width="51.000000pt" height="81.000000pt" viewBox="0 0 51.000000 81.000000"
 preserveAspectRatio="xMidYMid meet">
<metadata>
Created by potrace 1.13, written by Peter Selinger 2001-2015
</metadata>
<g transform="translate(0.000000,81.000000) scale(0.100000,-0.100000)"
fill="#000000" stroke="none">
<path d="M153 790 l-5 -20 -54 0 -53 0 -16 -30 -15 -30 25 -6 25 -6 19 5 19 5
10 -7 10 -6 1 -80 0 -80 -4 -170 -5 -170 -10 -75 -11 -75 21 -17 20 -16 116 3
116 3 7 9 6 10 39 9 39 9 19 25 18 25 6 76 7 76 -29 30 -29 30 -59 29 -60 30
-3 9 -3 10 59 45 59 44 16 46 16 45 0 56 0 57 -15 6 -15 5 0 23 0 23 -37 16
-38 16 -79 1 -80 1 -8 16 -9 15 -15 0 -16 0 -5 -20z m188 -66 l45 -6 12 -26
12 -26 0 -60 0 -61 -38 -50 -38 -50 -23 -11 -24 -12 -6 -10 -6 -10 -42 -7 -41
-7 -12 21 -11 21 9 83 9 82 -4 62 -4 62 28 4 28 4 31 2 31 1 44 -6z m27 -426
l37 -22 20 -19 20 -18 0 -60 -1 -60 -14 -10 -15 -9 -25 -6 -25 -5 -18 -10 -19
-10 -66 -6 -67 -5 -18 14 -18 13 -1 20 0 20 6 90 5 90 18 13 18 14 63 -6 64
-5 36 -23z"/>
</g>
</svg>
