<?xml version="1.0" standalone="no"?>
<!DOCTYPE svg PUBLIC "-//W3C//DTD SVG 20010904//EN"
 "http://www.w3.org/TR/2001/REC-SVG-20010904/DTD/svg10.dtd">
<svg version="1.0" xmlns="http://www.w3.org/2000/svg"
 width="51.000000pt" height="81.000000pt" viewBox="0 0 51.000000 81.000000"
 preserveAspectRatio="xMidYMid meet">
<metadata>
Created by potrace 1.13, written by Peter Selinger 2001-2015
</metadata>
<g transform="translate(0.000000,81.000000) scale(0.100000,-0.100000)"
fill="#000000" stroke="none">
<path d="M53 793 l-13 -5 0 -24 0 -25 -11 -22 -12 -21 2 -231 2 -230 0 -40 0
-40 -7 -72 -6 -73 14 0 14 0 16 13 16 12 5 94 6 94 8 7 8 7 84 -8 85 -9 6 -10
6 -9 35 -15 36 -15 13 -15 12 -16 18 0 18 0 19 -37 18 -38 28 -3 27 -3 0 15 0
16 -27 39 -28 40 -10 1 -10 0 -11 18 -11 17 -54 27 -54 26 -25 10 -25 11 -72
6 -73 6 0 -10 0 -11 -15 0 -15 0 0 15 0 15 10 0 10 0 0 15 0 15 -10 0 -10 0
-2 233 -3 234 -12 -4z"/>
<path d="M332 701 l-22 -18 0 -31 0 -30 -27 -33 -28 -32 -55 -63 -55 -63 -27
-35 -28 -34 0 -16 0 -16 8 0 7 1 33 29 32 30 0 10 0 10 12 0 13 0 70 74 71 74
14 29 15 28 13 13 12 13 0 40 0 39 -18 0 -19 0 -21 -19z"/>
</g>
</svg>
