<?xml version="1.0" standalone="no"?>
<!DOCTYPE svg PUBLIC "-//W3C//DTD SVG 20010904//EN"
 "http://www.w3.org/TR/2001/REC-SVG-20010904/DTD/svg10.dtd">
<svg version="1.0" xmlns="http://www.w3.org/2000/svg"
 width="54.000000pt" height="89.000000pt" viewBox="0 0 54.000000 89.000000"
 preserveAspectRatio="xMidYMid meet">
<metadata>
Created by potrace 1.13, written by Peter Selinger 2001-2015
</metadata>
<g transform="translate(0.000000,89.000000) scale(0.100000,-0.100000)"
fill="#000000" stroke="none">
<path d="M16 868 l-16 -22 13 -8 12 -7 7 -238 6 -238 8 -126 7 -126 -12 -7
-11 -7 0 -34 0 -34 20 -6 21 -7 12 10 12 9 140 13 140 13 63 -11 63 -11 15 6
15 6 -3 21 -3 21 -65 9 -65 9 -65 1 -65 1 -84 -9 -84 -9 6 84 6 84 -10 50 -10
50 -8 245 -7 245 -12 23 -13 22 -9 0 -9 0 -15 -22z"/>
</g>
</svg>
