<?xml version="1.0" standalone="no"?>
<!DOCTYPE svg PUBLIC "-//W3C//DTD SVG 20010904//EN"
 "http://www.w3.org/TR/2001/REC-SVG-20010904/DTD/svg10.dtd">
<svg version="1.0" xmlns="http://www.w3.org/2000/svg"
 width="69.000000pt" height="78.000000pt" viewBox="0 0 69.000000 78.000000"
 preserveAspectRatio="xMidYMid meet">
<metadata>
Created by potrace 1.13, written by Peter Selinger 2001-2015
</metadata>
<g transform="translate(0.000000,78.000000) scale(0.100000,-0.100000)"
fill="#000000" stroke="none">
<path d="M105 768 l-4 -13 -4 -95 -5 -95 -10 -30 -11 -30 -16 -130 -17 -130
-8 -10 -7 -10 -6 -96 -5 -96 7 -12 8 -12 10 13 11 13 16 105 15 105 10 40 10
40 11 62 11 62 6 80 6 81 12 0 13 0 6 -32 7 -33 9 -100 9 -100 12 -45 13 -45
29 -57 29 -57 20 -7 20 -6 16 24 17 23 18 30 17 30 32 65 32 65 8 3 8 4 0 10
0 10 25 30 25 30 0 24 0 24 9 0 9 0 5 20 5 20 16 0 16 0 1 -67 0 -68 5 -105 5
-105 9 -3 10 -4 0 -22 0 -23 11 -31 11 -31 19 -6 19 -6 10 6 10 6 0 25 0 25
-22 30 -23 31 0 251 0 252 -10 7 -10 7 -25 -6 -25 -5 -12 -16 -12 -15 4 -8 5
-7 -26 -61 -27 -61 -8 0 -9 0 0 -11 0 -11 -22 -31 -23 -32 -16 -30 -16 -30
-21 -35 -21 -35 -22 -42 -23 -43 -11 0 -12 0 -15 18 -15 17 -7 30 -7 30 -5 35
-4 35 -16 120 -16 120 -14 32 -14 31 0 24 -1 23 -13 18 -13 17 -22 0 -22 0 -4
-12z"/>
<path d="M405 600 l6 -10 10 5 9 6 0 5 0 4 -16 0 -15 0 6 -10z"/>
</g>
</svg>
