<?xml version="1.0" standalone="no"?>
<!DOCTYPE svg PUBLIC "-//W3C//DTD SVG 20010904//EN"
 "http://www.w3.org/TR/2001/REC-SVG-20010904/DTD/svg10.dtd">
<svg version="1.0" xmlns="http://www.w3.org/2000/svg"
 width="52.000000pt" height="89.000000pt" viewBox="0 0 52.000000 89.000000"
 preserveAspectRatio="xMidYMid meet">
<metadata>
Created by potrace 1.13, written by Peter Selinger 2001-2015
</metadata>
<g transform="translate(0.000000,89.000000) scale(0.100000,-0.100000)"
fill="#000000" stroke="none">
<path d="M451 848 l-14 -33 -13 -15 -12 -15 -13 -118 -12 -117 12 -68 13 -67
-4 -99 -3 -99 -11 -4 -11 -4 -12 28 -13 28 -54 71 -54 70 0 10 0 10 -17 15
-18 16 -32 34 -32 34 -40 40 -41 39 0 49 0 48 -19 -10 -19 -11 -6 -47 -7 -48
2 -55 2 -55 -1 -95 0 -95 -1 -75 0 -75 2 -50 3 -51 8 -12 7 -12 19 0 20 0 6
25 6 25 -6 117 -6 118 -5 113 -5 112 13 0 12 0 53 -53 52 -53 0 -8 0 -7 32
-47 32 -47 8 -3 8 -4 40 -58 40 -59 0 -9 0 -9 21 -27 20 -26 18 0 17 0 13 46
14 46 -8 147 -8 146 0 105 0 105 8 38 7 37 24 6 24 6 0 18 0 19 -10 6 -10 6 0
20 0 19 -13 0 -12 0 -14 -32z"/>
</g>
</svg>
