<?xml version="1.0" standalone="no"?>
<!DOCTYPE svg PUBLIC "-//W3C//DTD SVG 20010904//EN"
 "http://www.w3.org/TR/2001/REC-SVG-20010904/DTD/svg10.dtd">
<svg version="1.0" xmlns="http://www.w3.org/2000/svg"
 width="54.000000pt" height="85.000000pt" viewBox="0 0 54.000000 85.000000"
 preserveAspectRatio="xMidYMid meet">
<metadata>
Created by potrace 1.13, written by Peter Selinger 2001-2015
</metadata>
<g transform="translate(0.000000,85.000000) scale(0.100000,-0.100000)"
fill="#000000" stroke="none">
<path d="M170 826 l-25 -14 -33 -45 -32 -45 0 -7 0 -6 -27 -57 -27 -57 -4
-115 -3 -115 -1 -25 0 -25 12 -78 12 -77 36 -55 36 -55 53 -20 53 -20 53 -6
52 -6 40 22 40 22 37 41 37 41 11 46 11 45 16 50 17 50 0 125 1 125 -17 43
-18 42 -25 40 -25 40 0 15 0 15 -10 0 -10 0 -22 25 -21 24 -46 8 -46 7 -17 -3
-18 -2 0 10 0 11 -32 0 -33 -1 -25 -13z m134 -52 l33 6 13 -15 12 -15 20 0 19
0 -6 -10 -7 -11 18 -27 19 -27 24 -45 24 -45 5 -113 4 -112 -15 -48 -15 -47
-7 -40 -7 -40 -21 -35 -21 -35 -30 -27 -31 -27 -43 -1 -42 0 -37 20 -38 20
-10 0 -11 0 -39 77 -39 78 -3 139 -3 139 21 64 22 64 8 5 9 5 0 17 0 17 30 37
30 37 28 3 27 4 12 -9 13 -9 34 6z"/>
</g>
</svg>
