<?xml version="1.0" standalone="no"?>
<!DOCTYPE svg PUBLIC "-//W3C//DTD SVG 20010904//EN"
 "http://www.w3.org/TR/2001/REC-SVG-20010904/DTD/svg10.dtd">
<svg version="1.0" xmlns="http://www.w3.org/2000/svg"
 width="56.000000pt" height="77.000000pt" viewBox="0 0 56.000000 77.000000"
 preserveAspectRatio="xMidYMid meet">
<metadata>
Created by potrace 1.13, written by Peter Selinger 2001-2015
</metadata>
<g transform="translate(0.000000,77.000000) scale(0.100000,-0.100000)"
fill="#000000" stroke="none">
<path d="M195 741 l-81 -16 -31 -22 -31 -23 -21 0 -21 0 0 -18 0 -19 19 -17
18 -17 13 16 12 15 25 0 24 0 -13 -22 -12 -23 -3 -200 -2 -200 11 -47 12 -47
-13 -24 -13 -24 13 -20 12 -20 26 6 26 7 3 39 3 38 -9 6 -9 6 -6 118 -5 118
29 6 29 6 6 8 5 9 32 0 32 0 40 10 40 11 67 32 68 32 30 56 30 57 0 36 0 35
-30 34 -29 34 -66 22 -65 21 -43 -1 -42 -1 -80 -17z m240 -65 l10 -13 23 -12
22 -12 0 -37 0 -38 -14 -20 -14 -20 -60 -37 -59 -36 -46 -11 -47 -10 -46 -10
-45 -10 -11 6 -11 7 7 104 7 104 12 19 11 19 26 10 25 10 35 4 35 4 65 -4 65
-5 10 -12z"/>
</g>
</svg>
