<?xml version="1.0" standalone="no"?>
<!DOCTYPE svg PUBLIC "-//W3C//DTD SVG 20010904//EN"
 "http://www.w3.org/TR/2001/REC-SVG-20010904/DTD/svg10.dtd">
<svg version="1.0" xmlns="http://www.w3.org/2000/svg"
 width="69.000000pt" height="87.000000pt" viewBox="0 0 69.000000 87.000000"
 preserveAspectRatio="xMidYMid meet">
<metadata>
Created by potrace 1.13, written by Peter Selinger 2001-2015
</metadata>
<g transform="translate(0.000000,87.000000) scale(0.100000,-0.100000)"
fill="#000000" stroke="none">
<path d="M310 861 l-35 -6 -40 -22 -40 -21 -38 -39 -38 -38 -24 -49 -24 -48
-12 -62 -11 -61 -6 -15 -6 -15 -1 -17 -2 -18 -13 -15 -13 -16 7 -96 7 -96 22
-22 22 -22 23 -28 22 -27 0 -7 0 -7 18 -14 17 -15 25 -13 25 -12 45 -2 45 -2
45 2 45 2 33 28 32 28 0 8 0 7 14 15 15 14 25 0 26 0 0 -16 0 -15 14 -15 15
-14 10 0 11 0 0 -9 0 -10 13 -13 12 -14 11 -19 11 -20 17 -3 17 -4 14 12 15
12 0 34 0 33 -15 -5 -15 -6 -56 58 -56 59 6 54 7 55 10 12 10 12 10 122 11
123 -10 6 -10 6 -5 40 -5 40 -7 30 -8 30 -32 30 -33 30 -23 18 -23 17 -17 0
-16 0 -23 20 -23 20 -6 -1 -6 -2 -35 -6z m70 -69 l0 -9 40 -13 40 -13 0 -14 0
-13 15 0 15 0 10 -24 9 -24 -6 -20 -5 -20 15 -28 15 -29 3 -60 3 -60 -8 -40
-8 -40 -16 -42 -17 -43 -12 -4 -12 -5 -32 36 -31 36 -17 -10 -16 -10 -3 -15
-3 -14 41 -41 40 -41 0 -10 0 -10 -49 -51 -49 -51 -61 0 -61 0 0 9 0 9 -29 10
-28 10 -27 29 -27 28 -20 40 -20 40 -6 62 -6 63 12 13 11 14 6 49 6 49 8 20 8
20 18 45 18 45 41 52 40 52 40 15 40 14 38 1 37 1 0 -8z m87 -534 l-5 -13 -1
19 -1 19 6 -6 6 -6 -5 -13z"/>
</g>
</svg>
