<?xml version="1.0" standalone="no"?>
<!DOCTYPE svg PUBLIC "-//W3C//DTD SVG 20010904//EN"
 "http://www.w3.org/TR/2001/REC-SVG-20010904/DTD/svg10.dtd">
<svg version="1.0" xmlns="http://www.w3.org/2000/svg"
 width="77.000000pt" height="85.000000pt" viewBox="0 0 77.000000 85.000000"
 preserveAspectRatio="xMidYMid meet">
<metadata>
Created by potrace 1.13, written by Peter Selinger 2001-2015
</metadata>
<g transform="translate(0.000000,85.000000) scale(0.100000,-0.100000)"
fill="#000000" stroke="none">
<path d="M155 821 l-14 -14 -47 -16 -47 -16 -11 -20 -11 -20 -12 -8 -13 -8 0
-9 0 -10 14 0 14 0 5 -20 5 -20 12 0 11 0 -6 19 -6 19 35 22 36 21 22 -3 23
-3 8 -75 8 -75 0 -250 1 -250 -11 -28 -11 -29 6 -9 5 -9 23 0 23 0 9 23 9 22
-1 270 0 270 -8 81 -8 81 31 13 32 13 84 -5 83 -6 23 -16 23 -16 16 0 15 -1
23 -18 22 -19 0 -35 0 -35 -15 -12 -15 -12 0 -13 0 -13 -67 -61 -68 -61 -39
-11 -38 -10 -45 -28 -45 -28 23 -17 23 -16 12 0 12 0 78 -38 79 -39 35 -13 34
-14 30 -35 31 -34 30 -13 30 -12 19 -21 19 -21 22 0 23 0 10 13 10 12 6 20 6
20 -9 14 -9 15 -15 -12 -14 -12 -36 19 -37 19 -35 31 -36 31 -14 0 -15 0 0 10
0 10 -20 0 -20 0 0 10 0 10 -11 0 -11 0 -28 20 -28 20 -31 6 -31 7 -5 7 -5 8
54 31 54 30 51 47 50 46 15 12 14 11 16 48 16 48 0 33 0 33 -44 31 -44 32 -10
0 -10 0 -29 14 -28 14 -25 12 -26 11 -122 -3 -122 -3 -15 -14z"/>
</g>
</svg>
