<?xml version="1.0" standalone="no"?>
<!DOCTYPE svg PUBLIC "-//W3C//DTD SVG 20010904//EN"
 "http://www.w3.org/TR/2001/REC-SVG-20010904/DTD/svg10.dtd">
<svg version="1.0" xmlns="http://www.w3.org/2000/svg"
 width="55.000000pt" height="79.000000pt" viewBox="0 0 55.000000 79.000000"
 preserveAspectRatio="xMidYMid meet">
<metadata>
Created by potrace 1.13, written by Peter Selinger 2001-2015
</metadata>
<g transform="translate(0.000000,79.000000) scale(0.100000,-0.100000)"
fill="#000000" stroke="none">
<path d="M180 773 l-15 -4 -25 -12 -25 -12 -18 -15 -19 -15 -21 -18 -21 -18
-3 -21 -3 -22 -16 -18 -16 -17 6 -44 7 -44 25 -22 26 -23 102 -14 101 -14 56
-14 57 -14 32 -23 33 -24 24 -23 23 -23 -1 -57 0 -57 -27 -49 -27 -50 -56 -22
-57 -22 -43 2 -44 2 -37 13 -38 13 0 49 0 49 -10 0 -10 0 -30 -31 -30 -32 0
-23 0 -22 30 -25 29 -25 51 -11 51 -11 49 0 49 0 23 9 23 10 29 6 29 6 36 37
36 37 13 28 12 28 0 74 0 74 -12 28 -13 28 -28 28 -28 27 -14 0 -14 0 -35 21
-35 21 -58 12 -58 13 -75 12 -75 13 -15 7 -15 8 -3 32 -3 32 13 29 12 29 23
12 23 12 0 7 0 7 48 19 47 19 70 0 70 0 38 -22 38 -23 10 0 9 0 0 18 0 19 -25
23 -24 23 -28 -6 -28 -6 -19 -7 -19 -7 6 16 6 17 -67 -1 -67 -1 -15 -5z"/>
</g>
</svg>
