<?xml version="1.0" standalone="no"?>
<!DOCTYPE svg PUBLIC "-//W3C//DTD SVG 20010904//EN"
 "http://www.w3.org/TR/2001/REC-SVG-20010904/DTD/svg10.dtd">
<svg version="1.0" xmlns="http://www.w3.org/2000/svg"
 width="63.000000pt" height="86.000000pt" viewBox="0 0 63.000000 86.000000"
 preserveAspectRatio="xMidYMid meet">
<metadata>
Created by potrace 1.13, written by Peter Selinger 2001-2015
</metadata>
<g transform="translate(0.000000,86.000000) scale(0.100000,-0.100000)"
fill="#000000" stroke="none">
<path d="M540 839 l-45 -9 -240 -3 -240 -3 -3 -17 -3 -17 13 -13 13 -13 115 1
115 1 15 7 16 7 3 -157 4 -158 0 -165 1 -166 -8 -19 -8 -20 -3 -28 -3 -28 17
-21 17 -21 21 7 20 6 6 123 5 122 -2 125 -3 125 -8 116 -7 116 6 19 6 19 112
1 113 0 23 13 22 12 0 24 0 25 -22 -1 -23 -1 -45 -9z"/>
</g>
</svg>
