<?xml version="1.0" standalone="no"?>
<!DOCTYPE svg PUBLIC "-//W3C//DTD SVG 20010904//EN"
 "http://www.w3.org/TR/2001/REC-SVG-20010904/DTD/svg10.dtd">
<svg version="1.0" xmlns="http://www.w3.org/2000/svg"
 width="48.000000pt" height="90.000000pt" viewBox="0 0 48.000000 90.000000"
 preserveAspectRatio="xMidYMid meet">
<metadata>
Created by potrace 1.13, written by Peter Selinger 2001-2015
</metadata>
<g transform="translate(0.000000,90.000000) scale(0.100000,-0.100000)"
fill="#000000" stroke="none">
<path d="M220 870 l-20 -20 0 7 0 6 -20 -18 -21 -19 -21 -38 -22 -38 -7 0 -7
0 -18 -47 -17 -48 -9 -10 -8 -9 0 -16 0 -17 -17 -33 -16 -33 -1 -146 -1 -146
17 -30 18 -30 0 -27 0 -28 39 -39 39 -39 39 -19 38 -18 97 1 97 0 40 14 41 13
0 23 0 23 -57 -6 -58 -6 -18 -9 -17 -9 -63 11 -62 11 -41 40 -41 41 -12 41
-13 42 -14 28 -14 29 0 88 0 89 15 53 14 53 16 45 16 45 10 10 9 9 0 22 0 22
15 6 15 5 0 13 0 13 42 38 42 38 34 -6 34 -6 24 -11 24 -11 5 -19 6 -18 20 0
19 0 0 23 0 23 -14 19 -13 18 -44 14 -44 13 -37 0 -38 0 -20 -20z"/>
</g>
</svg>
