<?xml version="1.0" standalone="no"?>
<!DOCTYPE svg PUBLIC "-//W3C//DTD SVG 20010904//EN"
 "http://www.w3.org/TR/2001/REC-SVG-20010904/DTD/svg10.dtd">
<svg version="1.0" xmlns="http://www.w3.org/2000/svg"
 width="62.000000pt" height="77.000000pt" viewBox="0 0 62.000000 77.000000"
 preserveAspectRatio="xMidYMid meet">
<metadata>
Created by potrace 1.13, written by Peter Selinger 2001-2015
</metadata>
<g transform="translate(0.000000,77.000000) scale(0.100000,-0.100000)"
fill="#000000" stroke="none">
<path d="M31 743 l-9 -18 -5 -125 -5 -125 8 -90 9 -90 11 -70 12 -70 26 -35
27 -35 36 -37 37 -38 29 0 30 0 32 16 32 16 6 14 5 14 9 0 9 0 20 20 20 20 0
10 0 11 14 22 14 22 8 45 7 45 2 25 2 25 2 13 1 12 11 0 11 0 -4 -30 -5 -30
10 0 9 0 -5 -19 -4 -18 8 -59 9 -59 19 -40 19 -40 5 -17 6 -16 29 -7 30 -6 21
13 22 13 -3 20 -3 20 -32 3 -33 3 0 14 0 14 -16 15 -15 16 -12 127 -11 128 1
120 1 120 7 68 7 67 -24 0 -23 0 -12 -27 -11 -28 -16 -63 -16 -64 0 -39 0 -40
-11 -21 -11 -21 -8 -96 -7 -96 -13 -35 -12 -35 -18 -35 -18 -35 -38 -23 -39
-22 -13 -6 -13 -7 -25 23 -24 23 0 13 0 13 -15 9 -16 8 -15 90 -15 89 -10 17
-9 18 0 195 0 195 -15 0 -14 0 -10 -17z"/>
</g>
</svg>
