<?xml version="1.0" standalone="no"?>
<!DOCTYPE svg PUBLIC "-//W3C//DTD SVG 20010904//EN"
 "http://www.w3.org/TR/2001/REC-SVG-20010904/DTD/svg10.dtd">
<svg version="1.0" xmlns="http://www.w3.org/2000/svg"
 width="56.000000pt" height="82.000000pt" viewBox="0 0 56.000000 82.000000"
 preserveAspectRatio="xMidYMid meet">
<metadata>
Created by potrace 1.13, written by Peter Selinger 2001-2015
</metadata>
<g transform="translate(0.000000,82.000000) scale(0.100000,-0.100000)"
fill="#000000" stroke="none">
<path d="M486 795 l-16 -24 0 -7 0 -8 -19 -40 -20 -41 -25 -59 -26 -58 0 -20
0 -19 -14 -27 -13 -27 -5 -40 -6 -40 -32 -70 -32 -70 -18 -40 -18 -40 -6 -18
-6 -18 -8 5 -9 5 -1 33 -1 33 -10 3 -11 4 0 25 0 25 -14 31 -14 32 -26 70 -26
70 0 32 0 31 -15 28 -15 29 0 26 0 27 -16 38 -16 39 -4 4 -4 4 -19 -17 -19
-18 5 -36 5 -37 8 -20 8 -20 12 -45 11 -45 41 -130 41 -130 9 -20 8 -20 11
-50 10 -50 6 -30 6 -30 16 -12 16 -12 13 -1 12 0 0 15 0 15 8 0 8 0 21 53 21
52 12 35 13 35 29 63 28 63 0 18 0 17 11 11 11 11 10 44 9 43 8 35 7 35 12 22
12 22 0 16 0 16 25 33 25 33 0 16 0 17 10 0 9 0 9 18 10 17 7 33 7 32 -30 0
-30 0 -16 -25z"/>
</g>
</svg>
