<?xml version="1.0" standalone="no"?>
<!DOCTYPE svg PUBLIC "-//W3C//DTD SVG 20010904//EN"
 "http://www.w3.org/TR/2001/REC-SVG-20010904/DTD/svg10.dtd">
<svg version="1.0" xmlns="http://www.w3.org/2000/svg"
 width="66.000000pt" height="83.000000pt" viewBox="0 0 66.000000 83.000000"
 preserveAspectRatio="xMidYMid meet">
<metadata>
Created by potrace 1.13, written by Peter Selinger 2001-2015
</metadata>
<g transform="translate(0.000000,83.000000) scale(0.100000,-0.100000)"
fill="#000000" stroke="none">
<path d="M22 822 l-22 -3 7 -12 8 -12 18 -180 18 -180 8 -165 8 -165 13 -33
12 -32 24 0 24 0 0 15 0 16 14 5 14 5 12 47 13 47 7 10 8 10 7 35 7 35 29 64
29 64 0 12 0 13 14 11 13 11 10 -12 10 -13 8 -40 7 -40 19 -39 19 -40 0 -22 0
-22 24 -49 24 -48 8 -30 7 -30 21 -27 20 -28 12 0 13 0 5 9 6 9 10 68 11 69
15 105 15 105 14 45 15 45 25 76 25 76 0 60 0 61 -16 6 -16 6 -9 0 -9 0 0 -45
0 -45 -15 -37 -14 -38 -16 -65 -17 -65 -8 -10 -8 -10 -5 -55 -5 -55 -16 -69
-16 -69 -5 -6 -6 -5 -9 14 -9 15 -20 65 -20 65 -26 80 -26 80 -3 15 -2 16 -15
21 -15 22 -21 -5 -22 -6 -15 -37 -14 -37 -31 -53 -31 -52 0 -22 -1 -22 -28
-85 -28 -84 -12 -4 -11 -4 0 144 -1 143 -15 140 -15 140 -6 47 -6 48 -11 8
-11 8 -23 -4z"/>
</g>
</svg>
