<?xml version="1.0" standalone="no"?>
<!DOCTYPE svg PUBLIC "-//W3C//DTD SVG 20010904//EN"
 "http://www.w3.org/TR/2001/REC-SVG-20010904/DTD/svg10.dtd">
<svg version="1.0" xmlns="http://www.w3.org/2000/svg"
 width="49.000000pt" height="100.000000pt" viewBox="0 0 49.000000 100.000000"
 preserveAspectRatio="xMidYMid meet">
<metadata>
Created by potrace 1.13, written by Peter Selinger 2001-2015
</metadata>
<g transform="translate(0.000000,100.000000) scale(0.100000,-0.100000)"
fill="#000000" stroke="none">
<path d="M425 977 l-21 -24 -14 -44 -13 -44 -12 -25 -12 -25 -16 -33 -17 -34
0 -15 0 -16 -21 -58 -22 -59 -10 0 -10 0 -33 36 -34 35 0 13 0 13 -19 17 -19
17 -12 32 -12 32 -14 32 -14 31 0 15 0 16 -10 6 -10 6 0 18 0 19 -19 23 -19
23 -15 -12 -15 -12 6 -48 5 -47 13 -8 14 -8 0 -20 0 -20 46 -91 47 -90 52 -56
53 -55 -5 -36 -6 -36 -8 -9 -9 -10 0 -27 0 -27 -16 -53 -16 -54 -9 -17 -9 -17
-6 -43 -7 -43 -13 -10 -13 -10 -7 -50 -6 -51 25 -13 25 -13 9 5 10 6 12 58 13
58 9 23 9 23 0 30 0 30 15 37 16 37 9 35 8 35 31 115 31 115 9 30 9 30 13 35
12 35 8 20 7 20 22 45 22 45 24 40 24 40 -2 25 -3 25 -20 3 -20 2 -20 -23z"/>
</g>
</svg>
