<?xml version="1.0" standalone="no"?>
<!DOCTYPE svg PUBLIC "-//W3C//DTD SVG 20010904//EN"
 "http://www.w3.org/TR/2001/REC-SVG-20010904/DTD/svg10.dtd">
<svg version="1.0" xmlns="http://www.w3.org/2000/svg"
 width="52.000000pt" height="83.000000pt" viewBox="0 0 52.000000 83.000000"
 preserveAspectRatio="xMidYMid meet">
<metadata>
Created by potrace 1.13, written by Peter Selinger 2001-2015
</metadata>
<g transform="translate(0.000000,83.000000) scale(0.100000,-0.100000)"
fill="#000000" stroke="none">
<path d="M87 803 l-5 -28 5 -30 6 -30 13 -21 14 -20 21 -60 20 -59 6 -22 5
-23 9 0 9 0 0 -26 0 -26 16 -28 17 -28 -7 -13 -7 -14 -13 -23 -13 -23 -21 -22
-20 -22 -42 -80 -42 -80 -14 -16 -14 -16 0 -11 0 -12 -15 0 -15 0 0 -20 0 -19
21 -11 20 -11 20 3 20 3 38 84 38 84 49 64 49 63 14 -3 13 -2 24 -43 24 -43 0
-15 0 -15 15 -5 15 -6 0 -19 0 -19 8 0 8 0 19 -55 18 -55 23 -6 23 -6 10 7 11
6 0 30 0 30 -19 38 -20 37 -15 13 -16 13 0 13 0 13 -14 11 -14 11 -5 28 -6 28
-34 51 -34 51 19 31 20 31 7 0 8 0 13 41 14 41 13 5 13 5 0 23 0 24 13 13 12
13 28 42 27 43 0 14 0 15 10 6 10 6 0 24 0 24 -11 7 -11 6 -22 -11 -21 -12
-43 -83 -42 -83 0 -12 0 -12 -14 -5 -14 -5 -5 -27 -6 -27 -25 -34 -25 -34 -12
29 -11 29 -9 15 -9 15 -6 15 -6 15 -14 32 -14 31 0 14 0 15 -16 31 -15 32 -10
5 -9 6 0 25 0 25 -14 15 -15 14 -9 0 -9 0 -6 -27z"/>
</g>
</svg>
