<?xml version="1.0" standalone="no"?>
<!DOCTYPE svg PUBLIC "-//W3C//DTD SVG 20010904//EN"
 "http://www.w3.org/TR/2001/REC-SVG-20010904/DTD/svg10.dtd">
<svg version="1.0" xmlns="http://www.w3.org/2000/svg"
 width="69.000000pt" height="107.000000pt" viewBox="0 0 69.000000 107.000000"
 preserveAspectRatio="xMidYMid meet">
<metadata>
Created by potrace 1.13, written by Peter Selinger 2001-2015
</metadata>
<g transform="translate(0.000000,107.000000) scale(0.100000,-0.100000)"
fill="#000000" stroke="none">
<path d="M500 1044 l-45 -15 -135 5 -135 6 -57 6 -58 7 0 -30 0 -31 28 -6 27
-6 115 -5 115 -6 53 -5 52 -5 0 -11 0 -10 -30 -38 -30 -38 0 -6 0 -6 -34 -47
-34 -48 -40 -75 -41 -75 -22 -42 -21 -43 -8 0 -8 0 -25 -42 -26 -43 -43 -45
-43 -45 -22 -29 -23 -30 0 -22 0 -22 16 -6 16 -6 26 0 27 0 29 15 28 15 152 0
151 0 48 -15 47 -14 61 2 61 1 9 24 9 24 -5 8 -5 8 -77 6 -78 6 -75 6 -75 6
-122 -1 -123 -1 0 12 0 11 57 66 58 66 5 5 6 5 34 68 34 68 7 5 8 4 25 53 26
52 44 60 45 60 0 11 1 12 38 33 39 34 17 10 17 10 2 45 2 45 -25 2 -25 2 -45
-15z"/>
</g>
</svg>
