<?xml version="1.0" standalone="no"?>
<!DOCTYPE svg PUBLIC "-//W3C//DTD SVG 20010904//EN"
 "http://www.w3.org/TR/2001/REC-SVG-20010904/DTD/svg10.dtd">
<svg version="1.0" xmlns="http://www.w3.org/2000/svg"
 width="56.000000pt" height="81.000000pt" viewBox="0 0 56.000000 81.000000"
 preserveAspectRatio="xMidYMid meet">
<metadata>
Created by potrace 1.13, written by Peter Selinger 2001-2015
</metadata>
<g transform="translate(0.000000,81.000000) scale(0.100000,-0.100000)"
fill="#000000" stroke="none">
<path d="M30 796 l0 -16 -15 0 -15 0 0 -14 0 -14 50 -11 51 -11 29 0 29 0 5
-52 6 -53 5 -223 5 -224 7 -26 6 -25 -18 6 -17 7 -39 -10 -39 -11 0 -23 0 -24
16 -6 16 -6 32 0 33 0 11 -25 12 -25 20 0 20 0 0 46 0 45 14 15 15 14 21 0 21
0 32 16 32 17 16 18 16 19 9 0 9 1 26 22 26 23 27 50 27 50 13 120 13 119 -8
17 -9 17 0 25 0 25 -24 26 -25 26 -48 19 -48 18 -77 12 -78 13 0 6 0 6 -57 0
-58 0 -47 9 -48 8 0 -16z m328 -88 l74 -11 28 -24 29 -24 6 -42 6 -42 -10
-104 -10 -104 -10 -10 -11 -11 0 -15 0 -16 -42 -37 -43 -38 -12 0 -13 0 0 -8
0 -8 -42 -28 -41 -27 -14 5 -13 5 -2 33 -1 33 -2 25 -2 25 -8 224 -8 224 34
-7 34 -7 73 -11z m-158 -8 l0 -10 -4 0 -5 0 -6 10 -6 10 10 0 11 0 0 -10z"/>
</g>
</svg>
