<?xml version="1.0" standalone="no"?>
<!DOCTYPE svg PUBLIC "-//W3C//DTD SVG 20010904//EN"
 "http://www.w3.org/TR/2001/REC-SVG-20010904/DTD/svg10.dtd">
<svg version="1.0" xmlns="http://www.w3.org/2000/svg"
 width="58.000000pt" height="78.000000pt" viewBox="0 0 58.000000 78.000000"
 preserveAspectRatio="xMidYMid meet">
<metadata>
Created by potrace 1.13, written by Peter Selinger 2001-2015
</metadata>
<g transform="translate(0.000000,78.000000) scale(0.100000,-0.100000)"
fill="#000000" stroke="none">
<path d="M45 747 l-7 -22 -5 18 -4 17 -9 0 -9 0 -5 -8 -5 -9 15 -21 15 -22 57
0 57 0 38 -6 37 -7 -9 -11 -9 -11 -6 -145 -5 -145 8 -125 8 -125 -5 -17 -4
-18 -59 0 -59 0 0 -19 0 -20 -10 -6 -10 -6 0 -11 0 -10 62 6 63 6 70 0 70 1
90 -6 90 -6 35 -2 35 -2 3 34 3 34 -9 9 -10 10 -30 -16 -29 -15 -4 4 -4 3
-108 10 -109 11 -3 3 -3 3 -10 100 -10 100 9 18 10 17 76 0 77 0 33 -12 33
-12 16 16 16 15 -13 21 -13 21 -16 4 -17 4 -84 -4 -84 -4 -22 6 -23 5 0 133 0
133 13 17 12 18 45 4 45 5 63 6 62 6 14 -11 13 -11 10 12 10 13 6 23 5 23
-171 -6 -172 -6 -20 -2 -20 -1 -56 7 -57 7 -7 -23z m200 -667 l6 -10 -23 0
-23 0 15 10 15 10 2 0 2 0 6 -10z m145 -20 l0 -10 -12 0 -13 0 -15 10 -15 10
28 0 27 0 0 -10z"/>
</g>
</svg>
