<?xml version="1.0" standalone="no"?>
<!DOCTYPE svg PUBLIC "-//W3C//DTD SVG 20010904//EN"
 "http://www.w3.org/TR/2001/REC-SVG-20010904/DTD/svg10.dtd">
<svg version="1.0" xmlns="http://www.w3.org/2000/svg"
 width="65.000000pt" height="82.000000pt" viewBox="0 0 65.000000 82.000000"
 preserveAspectRatio="xMidYMid meet">
<metadata>
Created by potrace 1.13, written by Peter Selinger 2001-2015
</metadata>
<g transform="translate(0.000000,82.000000) scale(0.100000,-0.100000)"
fill="#000000" stroke="none">
<path d="M220 791 l-10 -20 -68 3 -67 3 -13 -4 -12 -5 0 -15 0 -14 -20 6 -20
6 0 -14 0 -15 25 -6 24 -6 55 6 55 7 4 -94 5 -94 12 -145 11 -145 1 -95 1 -95
-4 -20 -4 -20 33 -3 32 -3 6 16 7 16 -11 167 -11 166 10 13 10 12 155 -4 154
-3 0 29 0 29 -20 0 -20 0 0 -12 0 -13 -8 12 -7 11 -135 0 -135 0 -7 58 -7 59
-11 69 -11 69 9 9 9 9 27 -11 27 -10 120 0 119 0 0 11 0 11 43 -6 43 -7 18 20
18 20 -6 17 -6 17 -82 -8 -83 -7 -17 -9 -17 -9 -43 0 -44 0 -11 -11 -11 -11
-11 6 -11 7 0 15 0 15 -17 -2 -18 -1 -12 1 -13 1 0 20 0 20 -10 0 -9 0 -11
-19z"/>
</g>
</svg>
