<?xml version="1.0" standalone="no"?>
<!DOCTYPE svg PUBLIC "-//W3C//DTD SVG 20010904//EN"
 "http://www.w3.org/TR/2001/REC-SVG-20010904/DTD/svg10.dtd">
<svg version="1.0" xmlns="http://www.w3.org/2000/svg"
 width="58.000000pt" height="96.000000pt" viewBox="0 0 58.000000 96.000000"
 preserveAspectRatio="xMidYMid meet">
<metadata>
Created by potrace 1.13, written by Peter Selinger 2001-2015
</metadata>
<g transform="translate(0.000000,96.000000) scale(0.100000,-0.100000)"
fill="#000000" stroke="none">
<path d="M277 925 l-48 -25 -15 0 -15 0 -5 -15 -6 -15 -11 0 -11 0 -28 -32
-28 -33 0 -12 0 -12 -12 -13 -13 -14 -13 -19 -12 -20 -6 -15 -6 -15 -19 -48
-18 -48 -7 -89 -7 -89 17 -40 16 -41 0 -33 1 -32 19 -35 19 -35 9 -20 10 -20
26 -26 27 -27 49 -16 49 -16 41 0 40 0 18 9 17 9 59 24 60 25 4 11 3 11 -27 7
-27 7 -54 -18 -53 -18 0 -9 0 -8 -17 0 -18 0 -62 22 -63 22 0 13 0 13 -25 16
-25 16 0 28 0 28 -15 12 -15 12 0 34 0 33 -11 50 -10 49 16 94 16 93 9 9 10
10 0 23 0 23 10 0 10 0 0 20 0 20 9 0 9 0 21 35 20 35 11 0 11 0 16 15 15 16
29 6 29 6 0 7 0 7 40 7 40 6 0 10 0 10 -14 0 -14 0 -6 15 -5 15 -8 0 -8 -1
-48 -24z"/>
<path d="M390 870 l0 -10 11 0 11 0 17 -22 18 -21 7 11 6 11 -22 20 -22 21
-13 0 -13 0 0 -10z"/>
<path d="M370 455 l-34 -12 -11 -17 -10 -17 13 -8 13 -8 42 8 42 8 37 1 37 0
10 -19 10 -19 -14 -56 -15 -57 0 -118 0 -119 16 -6 16 -6 4 0 4 0 11 28 10 27
3 105 3 105 8 88 8 87 -31 0 -31 0 -6 9 -5 10 -48 -1 -47 -1 -35 -12z"/>
</g>
</svg>
