<?xml version="1.0" standalone="no"?>
<!DOCTYPE svg PUBLIC "-//W3C//DTD SVG 20010904//EN"
 "http://www.w3.org/TR/2001/REC-SVG-20010904/DTD/svg10.dtd">
<svg version="1.0" xmlns="http://www.w3.org/2000/svg"
 width="55.000000pt" height="84.000000pt" viewBox="0 0 55.000000 84.000000"
 preserveAspectRatio="xMidYMid meet">
<metadata>
Created by potrace 1.13, written by Peter Selinger 2001-2015
</metadata>
<g transform="translate(0.000000,84.000000) scale(0.100000,-0.100000)"
fill="#000000" stroke="none">
<path d="M47 823 l-7 -6 0 -33 0 -32 -12 -4 -12 -4 3 -235 3 -234 2 -104 1
-104 16 -10 16 -10 17 6 16 6 0 23 0 23 15 29 15 28 0 24 0 24 -14 0 -13 0 -7
61 -6 62 0 17 0 18 63 6 62 6 100 2 100 1 29 8 30 9 3 -4 4 -4 2 -188 2 -189
27 -2 26 -2 5 18 4 18 -10 359 -10 359 -3 4 -3 3 -22 -20 -21 -21 6 -35 7 -34
-10 -6 -10 -6 6 -105 6 -105 -39 -1 -39 -1 -155 -2 -155 -1 0 198 0 197 -16 0
-16 0 -6 -7z m13 -353 l0 -10 -10 0 -10 0 0 10 0 10 10 0 10 0 0 -10z"/>
</g>
</svg>
