<?xml version="1.0" standalone="no"?>
<!DOCTYPE svg PUBLIC "-//W3C//DTD SVG 20010904//EN"
 "http://www.w3.org/TR/2001/REC-SVG-20010904/DTD/svg10.dtd">
<svg version="1.0" xmlns="http://www.w3.org/2000/svg"
 width="47.000000pt" height="77.000000pt" viewBox="0 0 47.000000 77.000000"
 preserveAspectRatio="xMidYMid meet">
<metadata>
Created by potrace 1.13, written by Peter Selinger 2001-2015
</metadata>
<g transform="translate(0.000000,77.000000) scale(0.100000,-0.100000)"
fill="#000000" stroke="none">
<path d="M196 743 l-38 -16 -61 11 -61 12 -8 -8 -7 -7 -3 -30 -3 -30 63 3 62
4 0 -36 0 -36 -16 0 -16 0 2 -242 2 -243 -1 -22 -1 -22 -33 -3 -32 -3 0 -25 0
-24 33 -10 34 -9 31 18 31 18 98 5 98 5 0 -12 0 -11 39 0 39 0 4 30 5 31 -9 5
-8 5 -135 1 -135 1 0 1 0 1 9 33 10 33 -15 41 -14 41 0 193 0 193 55 42 56 42
-3 16 -3 16 -15 2 -15 2 -39 -16z m-131 -33 l6 -10 -10 0 -11 0 0 10 0 10 4 0
5 0 6 -10z"/>
</g>
</svg>
