<?xml version="1.0" standalone="no"?>
<!DOCTYPE svg PUBLIC "-//W3C//DTD SVG 20010904//EN"
 "http://www.w3.org/TR/2001/REC-SVG-20010904/DTD/svg10.dtd">
<svg version="1.0" xmlns="http://www.w3.org/2000/svg"
 width="47.000000pt" height="82.000000pt" viewBox="0 0 47.000000 82.000000"
 preserveAspectRatio="xMidYMid meet">
<metadata>
Created by potrace 1.13, written by Peter Selinger 2001-2015
</metadata>
<g transform="translate(0.000000,82.000000) scale(0.100000,-0.100000)"
fill="#000000" stroke="none">
<path d="M101 796 l-12 -14 -19 5 -20 5 0 -16 0 -16 18 0 18 0 10 -9 9 -9 90
8 90 9 5 -5 5 -5 3 -137 3 -137 9 -35 10 -35 0 -92 0 -92 -10 -6 -10 -6 0 -30
0 -29 -17 -40 -18 -40 -15 -1 -15 -1 -9 1 -9 2 -55 7 -55 7 -17 32 -17 33 -12
14 -12 14 10 7 11 6 11 21 11 20 -24 -7 -23 -7 -12 -12 -13 -11 -6 -46 -6 -46
28 -27 29 -26 9 0 9 0 16 -14 16 -14 75 -7 75 -7 27 22 28 21 14 32 14 32 17
101 18 102 -7 63 -8 64 -7 95 -7 95 7 10 7 10 4 35 3 34 40 15 40 15 2 0 1 1
7 28 7 28 -38 -5 -39 -4 2 -11 3 -11 -10 0 -10 0 0 13 0 13 -134 2 -134 2 -11
-14z"/>
</g>
</svg>
