<?xml version="1.0" standalone="no"?>
<!DOCTYPE svg PUBLIC "-//W3C//DTD SVG 20010904//EN"
 "http://www.w3.org/TR/2001/REC-SVG-20010904/DTD/svg10.dtd">
<svg version="1.0" xmlns="http://www.w3.org/2000/svg"
 width="11.000000pt" height="74.000000pt" viewBox="0 0 11.000000 74.000000"
 preserveAspectRatio="xMidYMid meet">
<metadata>
Created by potrace 1.13, written by Peter Selinger 2001-2015
</metadata>
<g transform="translate(0.000000,74.000000) scale(0.100000,-0.100000)"
fill="#000000" stroke="none">
<path d="M30 715 l-12 -14 7 -21 6 -20 -13 -5 -13 -5 2 -207 2 -206 13 -9 13
-8 15 3 15 2 0 253 0 252 -11 0 -12 0 -12 -15z"/>
<path d="M7 73 l-7 -6 0 -18 0 -19 28 -6 27 -6 12 -3 11 -4 5 17 5 17 7 18 7
17 -44 0 -45 0 -6 -7z"/>
</g>
</svg>
