<?xml version="1.0" standalone="no"?>
<!DOCTYPE svg PUBLIC "-//W3C//DTD SVG 20010904//EN"
 "http://www.w3.org/TR/2001/REC-SVG-20010904/DTD/svg10.dtd">
<svg version="1.0" xmlns="http://www.w3.org/2000/svg"
 width="62.000000pt" height="66.000000pt" viewBox="0 0 62.000000 66.000000"
 preserveAspectRatio="xMidYMid meet">
<metadata>
Created by potrace 1.13, written by Peter Selinger 2001-2015
</metadata>
<g transform="translate(0.000000,66.000000) scale(0.100000,-0.100000)"
fill="#000000" stroke="none">
<path d="M230 654 l-15 -5 -25 -12 -25 -12 -27 -24 -28 -24 0 -12 0 -13 -14
-11 -14 -12 -7 -36 -6 -35 -9 -17 -8 -16 -11 -25 -11 -25 -4 -55 -4 -55 -7
-18 -8 -18 11 -22 11 -22 7 -25 7 -24 37 -37 36 -36 25 -16 25 -17 46 -13 45
-14 54 8 54 8 58 24 59 25 11 11 11 11 13 0 13 0 0 8 0 8 35 40 35 39 6 33 6
33 -4 77 -5 77 -21 40 -22 40 0 11 0 11 -20 18 -20 18 0 17 0 18 -32 16 -33
16 -28 23 -28 22 -77 2 -77 2 -15 -5z m198 -77 l23 -22 23 -23 24 -23 16 -47
17 -47 15 -54 15 -55 -7 -45 -7 -46 -18 -37 -19 -36 -35 -12 -35 -11 -22 3
-22 3 -13 25 -13 25 0 58 0 58 14 27 13 27 1 30 0 30 -16 20 -17 20 -38 23
-38 22 -35 0 -34 0 -30 -42 -30 -41 0 -18 0 -18 -10 -6 -10 -6 0 -68 0 -68 11
-32 11 -31 18 -10 19 -10 18 0 19 0 22 20 21 20 21 0 21 0 5 -17 5 -18 10 -17
9 -18 0 -19 0 -19 -16 -6 -16 -6 -45 0 -45 0 -31 17 -31 18 -28 30 -29 30 -14
16 -15 16 0 11 0 10 -11 4 -11 4 11 86 12 87 15 38 15 38 16 35 16 35 31 28
30 28 21 4 20 4 25 5 25 4 55 -5 55 -5 23 -21z m-95 -214 l-6 -58 -18 -35 -17
-36 -35 -19 -34 -18 -15 6 -15 5 -6 61 -5 61 7 25 6 25 30 20 30 20 42 0 42 0
-6 -57z"/>
</g>
</svg>
