<?xml version="1.0" standalone="no"?>
<!DOCTYPE svg PUBLIC "-//W3C//DTD SVG 20010904//EN"
 "http://www.w3.org/TR/2001/REC-SVG-20010904/DTD/svg10.dtd">
<svg version="1.0" xmlns="http://www.w3.org/2000/svg"
 width="14.000000pt" height="40.000000pt" viewBox="0 0 14.000000 40.000000"
 preserveAspectRatio="xMidYMid meet">
<metadata>
Created by potrace 1.13, written by Peter Selinger 2001-2015
</metadata>
<g transform="translate(0.000000,40.000000) scale(0.100000,-0.100000)"
fill="#000000" stroke="none">
<path d="M50 381 l-10 -20 0 -15 0 -16 35 0 34 0 11 21 11 20 -12 15 -11 14
-24 0 -23 0 -11 -19z"/>
<path d="M22 91 l-22 -30 0 -11 0 -10 15 0 15 0 0 -8 0 -7 20 -13 20 -12 20
12 20 13 0 9 0 9 17 19 17 19 -10 17 -11 17 -39 3 -39 3 -23 -30z"/>
</g>
</svg>
