<?xml version="1.0" standalone="no"?>
<!DOCTYPE svg PUBLIC "-//W3C//DTD SVG 20010904//EN"
 "http://www.w3.org/TR/2001/REC-SVG-20010904/DTD/svg10.dtd">
<svg version="1.0" xmlns="http://www.w3.org/2000/svg"
 width="42.000000pt" height="63.000000pt" viewBox="0 0 42.000000 63.000000"
 preserveAspectRatio="xMidYMid meet">
<metadata>
Created by potrace 1.13, written by Peter Selinger 2001-2015
</metadata>
<g transform="translate(0.000000,63.000000) scale(0.100000,-0.100000)"
fill="#000000" stroke="none">
<path d="M391 611 l-12 -21 -12 0 -12 0 -33 -40 -34 -40 -40 -68 -41 -67 -8
-3 -9 -4 0 -9 0 -9 -27 -43 -27 -42 -19 -34 -19 -34 -14 -14 -14 -14 0 -8 0
-8 -35 -37 -35 -37 0 -19 0 -18 6 -16 6 -16 17 0 16 1 16 22 16 22 7 31 7 30
19 14 20 14 0 11 0 10 25 24 25 23 17 37 17 36 6 5 5 5 28 41 27 40 0 13 0 13
25 32 25 31 8 10 8 10 7 15 8 15 12 20 12 20 19 28 19 28 -11 11 -10 10 -11
-21z m-157 -256 l-6 -15 -9 0 -9 0 0 15 0 15 15 0 14 0 -5 -15z m-37 -57 l-5
-13 -1 19 -1 19 6 -6 6 -6 -5 -13z m-17 -37 l0 -10 -10 -6 -10 -6 0 15 0 16
10 0 10 0 0 -9z"/>
</g>
</svg>
