<?xml version="1.0" standalone="no"?>
<!DOCTYPE svg PUBLIC "-//W3C//DTD SVG 20010904//EN"
 "http://www.w3.org/TR/2001/REC-SVG-20010904/DTD/svg10.dtd">
<svg version="1.0" xmlns="http://www.w3.org/2000/svg"
 width="49.000000pt" height="52.000000pt" viewBox="0 0 49.000000 52.000000"
 preserveAspectRatio="xMidYMid meet">
<metadata>
Created by potrace 1.13, written by Peter Selinger 2001-2015
</metadata>
<g transform="translate(0.000000,52.000000) scale(0.100000,-0.100000)"
fill="#000000" stroke="none">
<path d="M13 484 l-11 -37 95 -96 95 -96 26 -25 26 -25 36 -39 35 -38 61 -64
60 -63 23 6 22 6 -5 14 -6 15 0 12 0 13 -35 38 -36 37 -14 -18 -14 -19 -6 18
-7 17 -14 0 -14 0 0 10 0 11 19 -11 20 -10 5 0 6 0 0 15 0 15 -9 0 -9 0 -69
70 -68 70 -17 0 -18 0 0 23 -1 22 -64 65 -65 64 0 12 0 12 -16 6 -16 6 -1 0
-2 0 -12 -36z m37 -34 l0 -10 -4 0 -5 0 -6 10 -6 10 10 0 11 0 0 -10z m55 -40
l6 -10 -15 0 -16 0 0 10 0 10 9 0 10 0 6 -10z"/>
</g>
</svg>
