<?xml version="1.0" standalone="no"?>
<!DOCTYPE svg PUBLIC "-//W3C//DTD SVG 20010904//EN"
 "http://www.w3.org/TR/2001/REC-SVG-20010904/DTD/svg10.dtd">
<svg version="1.0" xmlns="http://www.w3.org/2000/svg"
 width="34.000000pt" height="82.000000pt" viewBox="0 0 34.000000 82.000000"
 preserveAspectRatio="xMidYMid meet">
<metadata>
Created by potrace 1.13, written by Peter Selinger 2001-2015
</metadata>
<g transform="translate(0.000000,82.000000) scale(0.100000,-0.100000)"
fill="#000000" stroke="none">
<path d="M175 809 l-40 -9 -25 -13 -25 -12 -13 -12 -13 -13 -15 0 -14 0 0 -10
0 -10 -15 0 -15 0 0 -7 1 -8 12 -17 13 -16 14 -3 15 -3 29 27 29 27 23 0 24 0
0 10 0 9 35 7 34 6 14 -14 14 -13 12 -22 11 -22 -10 -46 -10 -46 -13 -16 -12
-16 -46 -48 -46 -49 -21 0 -22 0 -14 -23 -15 -23 7 -25 7 -26 45 -52 44 -51
23 0 23 0 0 24 0 24 -28 28 -28 29 -13 17 -13 17 15 16 16 15 8 0 8 0 26 28
25 27 34 45 35 45 9 6 9 7 5 50 4 51 -6 33 -6 33 -39 28 -39 27 -14 -1 -13 -1
-40 -9z m-55 -419 l0 -10 -4 0 -5 0 -6 10 -6 10 10 0 11 0 0 -10z"/>
<path d="M123 122 l-5 -22 -17 0 -17 0 -18 -31 -18 -31 8 -8 9 -9 53 -3 53 -3
16 27 17 27 -37 38 -38 37 -6 -22z"/>
</g>
</svg>
