<?xml version="1.0" standalone="no"?>
<!DOCTYPE svg PUBLIC "-//W3C//DTD SVG 20010904//EN"
 "http://www.w3.org/TR/2001/REC-SVG-20010904/DTD/svg10.dtd">
<svg version="1.0" xmlns="http://www.w3.org/2000/svg"
 width="44.000000pt" height="55.000000pt" viewBox="0 0 44.000000 55.000000"
 preserveAspectRatio="xMidYMid meet">
<metadata>
Created by potrace 1.13, written by Peter Selinger 2001-2015
</metadata>
<g transform="translate(0.000000,55.000000) scale(0.100000,-0.100000)"
fill="#000000" stroke="none">
<path d="M211 518 l-9 -23 12 -3 11 -2 -1 -76 -2 -75 -6 -6 -6 -6 -51 11 -51
12 -44 0 -44 0 0 -14 0 -15 28 -20 29 -20 74 -3 74 -3 3 -77 3 -76 14 -12 15
-12 0 -20 0 -19 -15 -5 -15 -6 0 -19 0 -19 35 0 35 0 6 26 6 25 -11 56 -11 56
0 54 0 53 51 0 50 0 20 10 19 11 0 24 0 25 -37 0 -37 0 -33 -12 -32 -12 -5 5
-4 4 -6 94 -6 95 -12 8 -13 8 -13 0 -13 0 -8 -22z m39 -114 l0 -14 -10 0 -10
0 0 21 0 20 10 -6 10 -6 0 -15z m7 -111 l-5 -18 0 30 0 30 5 -12 5 -13 -5 -17z"/>
</g>
</svg>
