<?xml version="1.0" standalone="no"?>
<!DOCTYPE svg PUBLIC "-//W3C//DTD SVG 20010904//EN"
 "http://www.w3.org/TR/2001/REC-SVG-20010904/DTD/svg10.dtd">
<svg version="1.0" xmlns="http://www.w3.org/2000/svg"
 width="63.000000pt" height="62.000000pt" viewBox="0 0 63.000000 62.000000"
 preserveAspectRatio="xMidYMid meet">
<metadata>
Created by potrace 1.13, written by Peter Selinger 2001-2015
</metadata>
<g transform="translate(0.000000,62.000000) scale(0.100000,-0.100000)"
fill="#000000" stroke="none">
<path d="M400 588 l-15 -33 -3 -20 -4 -20 -2 -55 -3 -55 -66 -3 -67 -3 -25 27
-26 27 4 11 3 10 12 4 12 4 1 -19 1 -18 13 50 13 50 1 23 1 22 -20 0 -20 0
-11 -27 -11 -28 -6 -60 -7 -60 -50 -2 -50 -2 -12 0 -13 -1 0 -15 0 -15 -8 0
-8 0 -11 11 -11 11 -6 -10 -5 -9 14 -19 13 -19 74 0 73 0 -3 -20 -4 -20 -5
-45 -5 -45 -12 -15 -11 -15 -13 -22 -12 -23 14 0 14 0 12 -15 12 -15 -11 0
-11 0 0 -35 0 -35 36 0 36 0 -6 23 -6 22 -6 26 -6 27 18 5 19 6 32 6 33 6 18
-5 19 -6 -5 -25 -4 -25 -9 -6 -9 -5 0 -40 0 -39 29 0 28 0 6 41 5 42 -9 25
-10 25 6 6 6 6 102 6 102 5 18 8 17 8 0 22 0 22 -85 2 -85 1 -21 6 -21 7 7 36
6 37 14 10 13 11 82 -10 81 -9 22 21 21 21 -5 5 -5 5 -87 11 -87 11 -25 11
-25 11 0 9 0 8 15 0 14 0 5 33 5 32 5 63 6 62 -18 0 -17 0 -15 -32z m10 -138
l0 -10 -11 0 -10 0 6 10 6 10 5 0 4 0 0 -10z m-66 -106 l16 -6 0 -19 0 -19
-12 -23 -11 -22 -9 -17 -8 -18 0 -5 0 -5 15 0 15 0 0 -10 0 -10 -15 0 -15 0 0
10 0 9 -57 3 -57 3 1 63 1 62 1 5 1 5 59 0 59 0 16 -6z m42 -51 l-6 -6 -6 6
-6 6 8 12 8 13 4 -13 4 -12 -6 -6z"/>
</g>
</svg>
