<?xml version="1.0" standalone="no"?>
<!DOCTYPE svg PUBLIC "-//W3C//DTD SVG 20010904//EN"
 "http://www.w3.org/TR/2001/REC-SVG-20010904/DTD/svg10.dtd">
<svg version="1.0" xmlns="http://www.w3.org/2000/svg"
 width="42.000000pt" height="28.000000pt" viewBox="0 0 42.000000 28.000000"
 preserveAspectRatio="xMidYMid meet">
<metadata>
Created by potrace 1.13, written by Peter Selinger 2001-2015
</metadata>
<g transform="translate(0.000000,28.000000) scale(0.100000,-0.100000)"
fill="#000000" stroke="none">
<path d="M63 260 l-23 -9 0 -32 0 -31 18 8 17 7 120 4 120 4 12 4 13 4 -6 15
-5 14 -63 11 -63 11 -59 -1 -59 0 -22 -9z"/>
<path d="M10 35 l0 -38 193 7 192 7 12 16 13 16 -12 15 -12 14 -96 -6 -95 -6
-10 -1 -10 0 -87 7 -88 7 0 -38z"/>
</g>
</svg>
