<?xml version="1.0" standalone="no"?>
<!DOCTYPE svg PUBLIC "-//W3C//DTD SVG 20010904//EN"
 "http://www.w3.org/TR/2001/REC-SVG-20010904/DTD/svg10.dtd">
<svg version="1.0" xmlns="http://www.w3.org/2000/svg"
 width="25.000000pt" height="56.000000pt" viewBox="0 0 25.000000 56.000000"
 preserveAspectRatio="xMidYMid meet">
<metadata>
Created by potrace 1.13, written by Peter Selinger 2001-2015
</metadata>
<g transform="translate(0.000000,56.000000) scale(0.100000,-0.100000)"
fill="#000000" stroke="none">
<path d="M170 541 l-10 -20 10 -25 10 -26 15 0 16 0 20 19 20 18 -7 27 -6 26
-29 0 -28 0 -11 -19z"/>
<path d="M177 243 l-7 -6 0 -26 0 -26 -22 -10 -23 -10 -3 -22 -3 -23 9 0 10 0
-27 -29 -28 -30 -34 -8 -34 -9 -3 -17 -3 -17 38 0 38 0 25 13 25 13 4 19 3 20
7 5 7 5 32 53 32 52 0 30 0 30 -18 0 -19 0 -6 -7z"/>
</g>
</svg>
