<?xml version="1.0" standalone="no"?>
<!DOCTYPE svg PUBLIC "-//W3C//DTD SVG 20010904//EN"
 "http://www.w3.org/TR/2001/REC-SVG-20010904/DTD/svg10.dtd">
<svg version="1.0" xmlns="http://www.w3.org/2000/svg"
 width="42.000000pt" height="84.000000pt" viewBox="0 0 42.000000 84.000000"
 preserveAspectRatio="xMidYMid meet">
<metadata>
Created by potrace 1.13, written by Peter Selinger 2001-2015
</metadata>
<g transform="translate(0.000000,84.000000) scale(0.100000,-0.100000)"
fill="#000000" stroke="none">
<path d="M214 764 l1 -66 -14 -6 -15 -6 -20 -15 -19 -16 -39 -37 -38 -38 0
-28 0 -28 28 -30 28 -31 46 -7 45 -7 5 -42 4 -42 0 -55 -1 -55 -33 -3 -33 -3
-12 9 -12 9 -62 7 -63 7 0 -20 0 -20 52 -15 53 -15 48 -12 49 -12 -2 -76 -3
-76 2 -12 1 -13 24 0 24 0 6 24 6 24 -6 32 -7 31 13 23 12 23 49 23 49 22 16
29 15 30 6 50 6 49 -18 40 -18 39 -16 7 -16 8 -40 10 -40 11 -2 49 -2 50 9 16
9 17 30 -5 31 -4 0 15 0 16 -16 16 -16 16 -18 -6 -19 -6 -9 18 -9 18 7 20 8
20 -5 30 -6 30 -21 17 -21 18 -7 0 -6 0 2 -66z m42 -60 l-5 -14 -11 0 -10 0 0
23 0 24 7 7 7 7 9 -16 9 -16 -6 -15z m-10 -154 l16 0 -4 -11 -4 -11 -25 -15
-26 -16 -36 18 -37 17 0 18 0 17 19 17 19 17 28 8 29 8 3 -34 3 -33 15 0z
m107 -152 l17 -20 0 -37 0 -36 -6 -20 -5 -21 -29 -13 -30 -13 -17 4 -18 4 2
12 3 11 5 58 6 58 5 23 5 23 22 -6 22 -7 18 -20z"/>
</g>
</svg>
