<?xml version="1.0" standalone="no"?>
<!DOCTYPE svg PUBLIC "-//W3C//DTD SVG 20010904//EN"
 "http://www.w3.org/TR/2001/REC-SVG-20010904/DTD/svg10.dtd">
<svg version="1.0" xmlns="http://www.w3.org/2000/svg"
 width="47.000000pt" height="59.000000pt" viewBox="0 0 47.000000 59.000000"
 preserveAspectRatio="xMidYMid meet">
<metadata>
Created by potrace 1.13, written by Peter Selinger 2001-2015
</metadata>
<g transform="translate(0.000000,59.000000) scale(0.100000,-0.100000)"
fill="#000000" stroke="none">
<path d="M352 578 l-12 -12 0 -16 0 -15 -45 -49 -45 -49 0 -10 0 -9 -29 -41
-29 -42 -37 -58 -38 -59 -14 -5 -13 -5 0 -19 0 -18 -40 -43 -40 -43 0 -22 0
-23 25 0 26 0 24 28 24 27 1 17 0 17 18 18 19 18 34 50 34 50 8 3 7 4 0 19 0
19 10 0 10 0 0 11 0 11 39 44 38 44 6 28 6 29 31 32 30 33 6 24 6 24 -24 0
-24 0 -12 -12z"/>
<path d="M86 541 l-6 -9 6 -16 6 -16 15 0 14 0 -3 -42 -3 -43 -19 0 -18 0 -22
42 -21 42 -12 1 -13 0 0 -63 0 -64 39 -13 38 -12 21 6 21 7 21 33 20 33 0 51
0 51 -22 6 -23 7 -17 4 -16 5 -6 -10z"/>
<path d="M333 178 l-20 -23 -16 -25 -17 -24 0 -38 0 -37 18 -5 17 -5 38 -7 39
-7 24 13 24 13 0 13 0 12 15 6 15 5 0 50 0 49 -34 16 -34 16 -24 0 -25 0 -20
-22z m85 -60 l3 -27 -24 -16 -24 -15 -17 6 -16 6 0 21 0 20 17 19 17 19 20 -3
21 -3 3 -27z"/>
</g>
</svg>
