<?xml version="1.0" standalone="no"?>
<!DOCTYPE svg PUBLIC "-//W3C//DTD SVG 20010904//EN"
 "http://www.w3.org/TR/2001/REC-SVG-20010904/DTD/svg10.dtd">
<svg version="1.0" xmlns="http://www.w3.org/2000/svg"
 width="43.000000pt" height="50.000000pt" viewBox="0 0 43.000000 50.000000"
 preserveAspectRatio="xMidYMid meet">
<metadata>
Created by potrace 1.13, written by Peter Selinger 2001-2015
</metadata>
<g transform="translate(0.000000,50.000000) scale(0.100000,-0.100000)"
fill="#000000" stroke="none">
<path d="M233 480 l-23 -9 0 -20 0 -19 -14 -27 -14 -27 -21 -14 -21 -15 0 -24
0 -24 -30 -45 -30 -44 -15 -35 -14 -34 6 -37 6 -36 -14 -1 -14 -1 -8 1 -8 1
-5 -14 -6 -14 11 -21 11 -20 15 5 15 6 0 13 0 13 13 5 13 5 13 50 13 51 14 12
14 11 0 18 0 17 19 24 18 24 8 25 7 25 24 32 24 32 0 11 0 11 17 -3 18 -3 16
-80 17 -80 1 -30 1 -30 18 -50 18 -50 28 -3 29 -4 -6 17 -7 16 15 5 15 6 0 20
0 20 -20 5 -20 5 -8 37 -9 36 -15 75 -15 75 -21 55 -20 55 -19 2 -18 2 -22 -9z
m-123 -299 l0 -9 -15 -12 -15 -12 0 5 0 5 6 16 6 16 9 0 9 0 0 -9z"/>
</g>
</svg>
