<?xml version="1.0" standalone="no"?>
<!DOCTYPE svg PUBLIC "-//W3C//DTD SVG 20010904//EN"
 "http://www.w3.org/TR/2001/REC-SVG-20010904/DTD/svg10.dtd">
<svg version="1.0" xmlns="http://www.w3.org/2000/svg"
 width="58.000000pt" height="60.000000pt" viewBox="0 0 58.000000 60.000000"
 preserveAspectRatio="xMidYMid meet">
<metadata>
Created by potrace 1.13, written by Peter Selinger 2001-2015
</metadata>
<g transform="translate(0.000000,60.000000) scale(0.100000,-0.100000)"
fill="#000000" stroke="none">
<path d="M240 581 l0 -11 -20 0 -19 0 -12 -21 -11 -22 6 -41 7 -41 14 -22 15
-22 -15 -34 -14 -34 -15 -13 -16 -12 0 -14 0 -14 -9 0 -9 0 -12 -34 -11 -33
-44 -47 -45 -46 0 -15 0 -15 -10 0 -10 0 0 -20 0 -20 32 -20 33 -20 33 0 32 0
66 30 66 30 40 41 39 41 15 -6 14 -5 0 -16 0 -15 14 0 14 0 5 -20 5 -20 21 0
21 0 0 24 0 24 -15 12 -15 12 0 29 0 29 9 0 9 0 43 36 42 35 23 43 23 44 -6 6
-6 6 -24 0 -23 0 -16 -32 -16 -33 -44 -32 -44 -33 -10 0 -10 0 0 15 0 15 -9 0
-9 0 -6 23 -5 22 -36 39 -35 39 0 6 0 7 20 22 21 22 26 51 25 51 -15 15 -16
16 -50 5 -51 5 0 -12z m60 -75 l0 -25 -20 -6 -20 -6 -10 6 -10 6 0 25 0 24 30
0 30 0 0 -24z m-30 -180 l0 -14 13 -11 14 -11 13 -40 13 -40 -11 -25 -12 -25
-61 -40 -62 -40 -27 0 -26 0 -11 -11 -11 -11 -11 6 -11 7 0 25 0 24 10 0 10 0
0 15 0 15 9 0 10 0 37 63 38 62 13 8 13 8 0 12 0 13 12 12 12 12 13 0 13 0 0
-14z m73 -56 l5 -20 -9 0 -9 0 0 20 0 20 4 0 4 0 5 -20z m67 -70 l0 -20 -15 0
-15 0 0 20 0 20 15 0 15 0 0 -20z"/>
</g>
</svg>
