<?xml version="1.0" standalone="no"?>
<!DOCTYPE svg PUBLIC "-//W3C//DTD SVG 20010904//EN"
 "http://www.w3.org/TR/2001/REC-SVG-20010904/DTD/svg10.dtd">
<svg version="1.0" xmlns="http://www.w3.org/2000/svg"
 width="46.000000pt" height="44.000000pt" viewBox="0 0 46.000000 44.000000"
 preserveAspectRatio="xMidYMid meet">
<metadata>
Created by potrace 1.13, written by Peter Selinger 2001-2015
</metadata>
<g transform="translate(0.000000,44.000000) scale(0.100000,-0.100000)"
fill="#000000" stroke="none">
<path d="M200 415 l0 -15 10 0 10 0 0 -15 0 -14 -14 5 -14 5 -4 -40 -4 -41 8
0 8 0 0 10 0 10 10 0 10 0 0 -19 0 -19 -22 -6 -23 -6 -42 0 -43 0 -16 18 -15
17 -19 25 -18 25 -6 -6 -7 -6 -1 -35 -1 -34 18 -27 17 -27 27 -6 26 -6 13 -4
12 -3 0 -14 0 -13 -39 -30 -40 -29 -6 -23 -6 -23 6 -9 6 -10 13 0 13 0 39 35
38 35 13 0 13 0 0 -54 0 -55 21 -6 21 -7 5 6 6 6 -2 84 -2 84 46 4 46 3 -15
-11 -15 -11 40 -35 39 -35 38 -7 37 -6 12 17 13 16 -10 12 -10 12 -50 24 -50
24 0 13 0 14 20 5 21 6 -3 16 -3 16 -32 0 -31 0 -8 8 -7 7 -23 0 -22 0 -6 23
-6 22 0 58 0 57 -20 0 -20 0 0 -15z m-115 -165 l6 -10 -10 0 -10 0 -6 10 -6
10 10 0 10 0 6 -10z m138 -4 l20 -1 5 -14 5 -14 -20 5 -20 5 -16 -9 -16 -8
-10 19 -11 19 13 5 12 4 9 -5 9 -5 20 -1z m87 -18 l0 -10 -12 4 -12 4 -4 12
-4 12 16 -6 16 -6 0 -10z m-40 -28 l0 -10 -4 0 -5 0 -6 10 -6 10 10 0 11 0 0
-10z"/>
<path d="M323 333 l-23 -15 0 -9 0 -9 13 0 14 0 17 19 17 19 -8 5 -8 5 -22
-15z"/>
</g>
</svg>
