<?xml version="1.0" standalone="no"?>
<!DOCTYPE svg PUBLIC "-//W3C//DTD SVG 20010904//EN"
 "http://www.w3.org/TR/2001/REC-SVG-20010904/DTD/svg10.dtd">
<svg version="1.0" xmlns="http://www.w3.org/2000/svg"
 width="26.000000pt" height="68.000000pt" viewBox="0 0 26.000000 68.000000"
 preserveAspectRatio="xMidYMid meet">
<metadata>
Created by potrace 1.13, written by Peter Selinger 2001-2015
</metadata>
<g transform="translate(0.000000,68.000000) scale(0.100000,-0.100000)"
fill="#000000" stroke="none">
<path d="M10 646 l0 -24 14 -11 13 -11 44 -23 44 -23 18 -37 19 -37 8 0 8 0 7
-105 7 -105 -22 -73 -23 -72 -11 -14 -10 -13 -11 -21 -11 -22 -19 -3 -20 -4
-12 -10 -13 -10 0 -14 0 -14 23 0 22 0 37 11 38 10 24 52 24 52 15 55 16 55
10 52 11 52 -11 48 -10 48 -8 35 -8 35 -8 20 -8 20 -29 28 -28 27 0 9 0 9 -30
12 -29 12 -12 14 -11 14 -29 0 -29 0 0 -24z m69 -12 l4 -4 -6 -6 -5 -6 -21 7
-21 6 0 10 0 10 23 -7 22 -6 4 -4z m45 -39 l16 -25 -6 0 -7 0 -19 17 -18 16 0
9 0 8 9 0 9 0 16 -25z m93 -357 l-4 -23 0 45 0 45 4 -22 4 -23 -4 -22z m-37
-125 l0 -8 -10 -15 -9 -14 -7 6 -6 7 5 16 6 15 11 0 10 0 0 -7z"/>
</g>
</svg>
