<?xml version="1.0" standalone="no"?>
<!DOCTYPE svg PUBLIC "-//W3C//DTD SVG 20010904//EN"
 "http://www.w3.org/TR/2001/REC-SVG-20010904/DTD/svg10.dtd">
<svg version="1.0" xmlns="http://www.w3.org/2000/svg"
 width="41.000000pt" height="57.000000pt" viewBox="0 0 41.000000 57.000000"
 preserveAspectRatio="xMidYMid meet">
<metadata>
Created by potrace 1.13, written by Peter Selinger 2001-2015
</metadata>
<g transform="translate(0.000000,57.000000) scale(0.100000,-0.100000)"
fill="#000000" stroke="none">
<path d="M223 553 l-6 -18 -41 -52 -41 -52 -12 -1 -13 0 0 -10 0 -10 -30 0
-30 0 -5 -27 -6 -28 -10 -17 -9 -18 0 -5 0 -5 21 0 21 0 65 45 64 45 10 0 11
0 -6 -47 -5 -48 -7 -101 -6 -101 -8 -14 -9 -13 -71 -7 -71 -6 -9 -9 -9 -9 9
-15 9 -15 170 0 170 0 18 17 17 18 -5 5 -6 5 -81 11 -81 12 -12 7 -12 8 20 28
21 29 6 155 6 155 6 53 6 52 -21 0 -22 0 -6 -17z"/>
</g>
</svg>
