<?xml version="1.0" standalone="no"?>
<!DOCTYPE svg PUBLIC "-//W3C//DTD SVG 20010904//EN"
 "http://www.w3.org/TR/2001/REC-SVG-20010904/DTD/svg10.dtd">
<svg version="1.0" xmlns="http://www.w3.org/2000/svg"
 width="47.000000pt" height="55.000000pt" viewBox="0 0 47.000000 55.000000"
 preserveAspectRatio="xMidYMid meet">
<metadata>
Created by potrace 1.13, written by Peter Selinger 2001-2015
</metadata>
<g transform="translate(0.000000,55.000000) scale(0.100000,-0.100000)"
fill="#000000" stroke="none">
<path d="M121 536 l-13 -16 -18 0 -17 0 -25 -23 -25 -23 -5 -26 -5 -27 9 -13
8 -13 10 16 9 16 20 24 19 24 66 0 66 0 25 -27 25 -27 0 -37 0 -36 -17 -31
-18 -32 -12 -8 -13 -8 0 -18 0 -19 -16 -13 -17 -14 -24 -38 -24 -39 5 -14 5
-14 -8 3 -8 2 -52 -25 -51 -25 2 -25 3 -25 14 3 13 3 82 11 81 11 123 -6 122
-5 0 12 0 12 -14 20 -14 19 -136 3 -136 4 0 18 0 18 40 36 40 36 0 14 0 15 30
33 30 32 0 18 0 18 10 0 10 0 0 50 0 51 -14 27 -14 27 -32 28 -31 28 -47 6
-48 5 -13 -16z"/>
</g>
</svg>
