<?xml version="1.0" standalone="no"?>
<!DOCTYPE svg PUBLIC "-//W3C//DTD SVG 20010904//EN"
 "http://www.w3.org/TR/2001/REC-SVG-20010904/DTD/svg10.dtd">
<svg version="1.0" xmlns="http://www.w3.org/2000/svg"
 width="37.000000pt" height="54.000000pt" viewBox="0 0 37.000000 54.000000"
 preserveAspectRatio="xMidYMid meet">
<metadata>
Created by potrace 1.13, written by Peter Selinger 2001-2015
</metadata>
<g transform="translate(0.000000,54.000000) scale(0.100000,-0.100000)"
fill="#000000" stroke="none">
<path d="M123 518 l-53 -10 0 -18 0 -18 -15 -6 -15 -5 -15 5 -15 6 0 -17 0
-17 15 5 14 6 6 -9 6 -10 27 0 28 0 17 20 17 20 45 0 45 0 0 -33 0 -33 -32
-30 -33 -30 -38 -20 -38 -19 -11 -12 -10 -13 12 -15 12 -15 9 0 9 0 38 -24 38
-24 42 -7 42 -7 22 -18 23 -18 -24 -21 -24 -21 -36 -6 -36 -6 -35 -11 -35 -11
-10 -8 -9 -8 -23 0 -23 0 0 30 0 31 -19 -10 -19 -10 -5 -28 -5 -27 9 -23 9
-23 42 6 43 7 10 8 9 9 22 0 22 0 64 16 63 15 18 21 17 20 0 19 0 19 10 0 10
0 0 24 0 24 -30 26 -31 25 -37 6 -37 7 -27 10 -28 10 0 15 0 14 35 20 35 21 0
9 0 9 19 19 18 18 7 51 6 51 -22 15 -22 16 -36 -1 -35 -1 -52 -10z"/>
</g>
</svg>
