<?xml version="1.0" standalone="no"?>
<!DOCTYPE svg PUBLIC "-//W3C//DTD SVG 20010904//EN"
 "http://www.w3.org/TR/2001/REC-SVG-20010904/DTD/svg10.dtd">
<svg version="1.0" xmlns="http://www.w3.org/2000/svg"
 width="51.000000pt" height="57.000000pt" viewBox="0 0 51.000000 57.000000"
 preserveAspectRatio="xMidYMid meet">
<metadata>
Created by potrace 1.13, written by Peter Selinger 2001-2015
</metadata>
<g transform="translate(0.000000,57.000000) scale(0.100000,-0.100000)"
fill="#000000" stroke="none">
<path d="M180 545 l0 -16 -27 3 -27 3 -4 -19 -4 -19 17 7 16 6 -3 -18 -3 -17
-15 0 -15 0 -27 -55 -27 -55 -1 -11 0 -11 -25 -49 -25 -49 0 -21 0 -22 27 -17
26 -18 64 6 63 6 18 10 17 9 45 4 45 3 -3 -75 -2 -75 5 -23 5 -22 29 0 28 0
-1 108 -1 107 45 -3 45 -3 22 6 23 5 0 30 0 29 -67 3 -68 3 -5 95 -5 95 -20 0
-20 0 -5 -103 -5 -104 -75 -24 -75 -24 -40 2 -40 3 -3 29 -4 28 20 22 19 21 7
34 6 35 13 15 13 16 14 43 13 42 14 11 13 11 0 9 0 9 -15 0 -15 0 0 -15z m166
-312 l-6 -6 -6 6 -6 6 8 12 8 13 4 -13 4 -12 -6 -6z"/>
</g>
</svg>
