<?xml version="1.0" standalone="no"?>
<!DOCTYPE svg PUBLIC "-//W3C//DTD SVG 20010904//EN"
 "http://www.w3.org/TR/2001/REC-SVG-20010904/DTD/svg10.dtd">
<svg version="1.0" xmlns="http://www.w3.org/2000/svg"
 width="40.000000pt" height="56.000000pt" viewBox="0 0 40.000000 56.000000"
 preserveAspectRatio="xMidYMid meet">
<metadata>
Created by potrace 1.13, written by Peter Selinger 2001-2015
</metadata>
<g transform="translate(0.000000,56.000000) scale(0.100000,-0.100000)"
fill="#000000" stroke="none">
<path d="M90 537 l0 -14 -18 -16 -19 -17 -15 0 -16 0 -6 -16 -6 -16 0 -19 0
-19 10 0 10 0 0 16 0 15 17 -3 17 -3 -3 -50 -3 -50 -9 -6 -9 -5 -3 -55 -2 -54
20 -3 20 -3 30 29 30 29 50 7 50 6 21 -18 21 -18 12 -22 12 -22 -12 -21 -11
-21 4 -33 4 -33 -11 4 -11 5 -25 -22 -24 -21 -64 4 -63 4 -29 35 -28 34 -1
-31 0 -31 21 -27 21 -26 28 -15 29 -15 33 1 33 1 31 11 30 12 25 20 24 20 21
40 22 40 7 41 6 41 -22 42 -22 42 -21 14 -21 14 -36 6 -36 7 -38 -16 -37 -16
-10 0 -10 0 4 61 4 61 15 9 14 9 123 0 122 0 0 8 -1 7 -20 24 -20 24 -109 1
-109 1 -13 13 -12 12 -8 0 -8 0 0 -13z"/>
</g>
</svg>
