<?xml version="1.0" standalone="no"?>
<!DOCTYPE svg PUBLIC "-//W3C//DTD SVG 20010904//EN"
 "http://www.w3.org/TR/2001/REC-SVG-20010904/DTD/svg10.dtd">
<svg version="1.0" xmlns="http://www.w3.org/2000/svg"
 width="34.000000pt" height="65.000000pt" viewBox="0 0 34.000000 65.000000"
 preserveAspectRatio="xMidYMid meet">
<metadata>
Created by potrace 1.13, written by Peter Selinger 2001-2015
</metadata>
<g transform="translate(0.000000,65.000000) scale(0.100000,-0.100000)"
fill="#000000" stroke="none">
<path d="M97 612 l-25 -27 -21 -42 -21 -42 0 -17 0 -18 -16 -63 -16 -62 11
-122 10 -122 33 -34 32 -33 13 0 13 0 0 -10 0 -10 24 0 24 0 25 13 26 14 45
39 46 39 0 18 0 17 9 0 9 0 7 45 6 46 -22 37 -23 37 -15 10 -16 10 -45 7 -45
6 -53 -25 -53 -25 -3 3 -4 4 14 77 13 78 16 29 15 30 0 26 0 25 9 0 10 0 3 22
3 21 13 5 12 4 0 -14 0 -15 30 5 30 4 0 8 0 8 -12 10 -13 10 -37 0 -36 0 -25
-26z m157 -358 l18 -26 -7 -26 -6 -27 -25 -36 -25 -36 -25 -12 -25 -11 -22 5
-22 6 -22 32 -22 32 6 57 6 56 26 7 26 6 35 8 35 8 16 -8 16 -8 17 -27z"/>
</g>
</svg>
