<?xml version="1.0" standalone="no"?>
<!DOCTYPE svg PUBLIC "-//W3C//DTD SVG 20010904//EN"
 "http://www.w3.org/TR/2001/REC-SVG-20010904/DTD/svg10.dtd">
<svg version="1.0" xmlns="http://www.w3.org/2000/svg"
 width="45.000000pt" height="67.000000pt" viewBox="0 0 45.000000 67.000000"
 preserveAspectRatio="xMidYMid meet">
<metadata>
Created by potrace 1.13, written by Peter Selinger 2001-2015
</metadata>
<g transform="translate(0.000000,67.000000) scale(0.100000,-0.100000)"
fill="#000000" stroke="none">
<path d="M385 660 l-20 -9 -32 0 -32 -1 -5 -9 -6 -8 -52 -7 -53 -7 -93 1 -94
1 4 -18 3 -17 25 -14 25 -13 100 5 100 5 44 7 43 7 -6 -19 -6 -19 -9 -60 -9
-60 -16 -80 -15 -80 -17 -90 -17 -90 -4 -36 -5 -36 21 -6 22 -5 16 24 16 24 8
88 9 87 26 150 26 150 9 3 9 4 0 24 0 24 10 0 9 0 10 38 11 37 0 8 0 7 -17 -1
-18 0 -20 -9z"/>
</g>
</svg>
