<?xml version="1.0" standalone="no"?>
<!DOCTYPE svg PUBLIC "-//W3C//DTD SVG 20010904//EN"
 "http://www.w3.org/TR/2001/REC-SVG-20010904/DTD/svg10.dtd">
<svg version="1.0" xmlns="http://www.w3.org/2000/svg"
 width="32.000000pt" height="56.000000pt" viewBox="0 0 32.000000 56.000000"
 preserveAspectRatio="xMidYMid meet">
<metadata>
Created by potrace 1.13, written by Peter Selinger 2001-2015
</metadata>
<g transform="translate(0.000000,56.000000) scale(0.100000,-0.100000)"
fill="#000000" stroke="none">
<path d="M130 541 l-25 -7 -22 -33 -22 -33 6 -31 6 -32 13 -16 14 -16 0 -11 0
-12 11 -18 11 -17 -45 -45 -45 -45 -11 -40 -11 -40 0 -21 0 -21 28 -36 27 -36
29 -11 29 -10 27 0 27 0 31 11 31 11 26 51 25 52 -10 36 -10 37 -20 25 -20 25
0 6 0 6 15 0 15 0 0 10 0 10 -26 6 -25 6 3 17 3 16 21 3 21 3 29 30 28 29 -1
51 -1 50 -23 25 -22 24 -56 -1 -56 -1 -25 -7z m128 -83 l3 -37 -17 -26 -18
-27 -39 6 -40 7 -13 17 -13 17 -1 37 0 36 13 6 12 5 55 -2 55 -2 3 -37z m-89
-205 l21 -28 9 -11 8 -10 12 -21 11 -22 0 -24 0 -25 -18 -22 -18 -22 -37 -1
-38 -1 -26 28 -25 28 4 43 5 43 27 28 26 29 0 7 0 8 9 0 10 0 20 -27z"/>
</g>
</svg>
