<?xml version="1.0" standalone="no"?>
<!DOCTYPE svg PUBLIC "-//W3C//DTD SVG 20010904//EN"
 "http://www.w3.org/TR/2001/REC-SVG-20010904/DTD/svg10.dtd">
<svg version="1.0" xmlns="http://www.w3.org/2000/svg"
 width="36.000000pt" height="72.000000pt" viewBox="0 0 36.000000 72.000000"
 preserveAspectRatio="xMidYMid meet">
<metadata>
Created by potrace 1.13, written by Peter Selinger 2001-2015
</metadata>
<g transform="translate(0.000000,72.000000) scale(0.100000,-0.100000)"
fill="#000000" stroke="none">
<path d="M110 710 l0 -11 -20 -21 -20 -22 -20 -38 -20 -39 0 -24 0 -24 -10 -6
-10 -6 0 -53 0 -54 32 -31 32 -31 43 0 44 0 33 14 33 14 28 36 27 36 11 0 10
0 -7 -82 -7 -83 -7 -80 -8 -80 -12 -22 -12 -22 0 -35 0 -36 30 0 30 0 1 3 1 2
9 105 8 105 14 70 14 70 -11 7 -10 7 12 23 13 23 -3 95 -3 94 -39 8 -39 8 -14
11 -13 11 0 17 0 16 -31 18 -31 17 -39 0 -39 0 0 -10z m89 -59 l19 -19 18 -11
19 -11 -19 -15 -20 -15 7 -7 7 -6 26 12 25 11 9 -5 8 -5 -10 -36 -10 -37 -53
-55 -54 -55 -41 6 -41 5 -14 12 -15 12 0 39 0 38 10 6 10 6 0 16 0 15 16 36
16 37 7 15 8 15 24 6 24 7 3 1 2 1 19 -19z"/>
</g>
</svg>
