<?xml version="1.0" standalone="no"?>
<!DOCTYPE svg PUBLIC "-//W3C//DTD SVG 20010904//EN"
 "http://www.w3.org/TR/2001/REC-SVG-20010904/DTD/svg10.dtd">
<svg version="1.0" xmlns="http://www.w3.org/2000/svg"
 width="30.000000pt" height="46.000000pt" viewBox="0 0 30.000000 46.000000"
 preserveAspectRatio="xMidYMid meet">
<metadata>
Created by potrace 1.13, written by Peter Selinger 2001-2015
</metadata>
<g transform="translate(0.000000,46.000000) scale(0.100000,-0.100000)"
fill="#000000" stroke="none">
<path d="M160 444 l-25 -14 -17 0 -17 0 -19 -25 -20 -25 -15 6 -15 5 -7 -33
-7 -33 -5 -80 -5 -80 12 -55 13 -55 23 -22 23 -21 38 -7 39 -6 23 20 24 21 7
0 7 0 27 40 26 40 0 20 0 21 16 25 17 24 -5 73 -5 72 -18 38 -18 38 -35 14
-34 15 -2 -1 -1 -1 -25 -14z m58 -66 l12 -10 1 -42 0 -41 8 -19 7 -19 -14 -54
-13 -55 -17 -20 -17 -21 -18 -19 -18 -19 -16 3 -16 3 -21 28 -21 28 -3 103 -4
103 18 28 18 27 20 8 21 9 30 -6 30 -5 13 -10z"/>
</g>
</svg>
